<?xml version="1.0" standalone="no"?>
<!DOCTYPE svg PUBLIC "-//W3C//DTD SVG 20010904//EN"
 "http://www.w3.org/TR/2001/REC-SVG-20010904/DTD/svg10.dtd">
<svg version="1.0" xmlns="http://www.w3.org/2000/svg"
 width="700.000000pt" height="700.000000pt" viewBox="0 0 700.000000 700.000000"
 preserveAspectRatio="xMidYMid meet">
<metadata>
Created by potrace 1.14, written by Peter Selinger 2001-2017
</metadata>
<g transform="translate(0.000000,700.000000) scale(0.100000,-0.100000)"
fill="#000000" stroke="none">
<path d="M5717 6150 c-187 -47 -302 -236 -260 -425 l14 -59 -188 -188 c-103
-103 -190 -188 -194 -188 -3 0 -37 25 -75 56 -229 184 -574 335 -864 379 -19
3 -60 9 -90 14 -73 12 -356 12 -450 0 -168 -21 -400 -85 -533 -147 l-58 -27
1276 -1277 1277 -1276 28 61 c65 143 122 354 149 547 10 69 7 420 -4 480 -39
217 -97 403 -174 560 -25 52 -49 97 -53 98 -5 2 -8 8 -8 14 0 15 -99 164 -158
237 -29 35 -52 68 -52 73 0 4 86 93 191 198 168 168 193 189 210 179 31 -16
141 -19 195 -5 111 29 184 90 233 195 22 48 26 69 25 151 0 83 -3 102 -28 151
-35 72 -105 142 -174 175 -61 29 -171 40 -235 24z"/>
<path d="M1950 5651 c-188 -42 -397 -158 -483 -269 -50 -64 -58 -162 -20 -235
8 -15 836 -850 1839 -1853 1344 -1344 1837 -1831 1867 -1845 51 -23 125 -24
175 -4 46 20 101 72 157 150 95 132 139 240 170 420 7 39 7 213 0 245 -2 13
-7 42 -11 64 -14 98 -85 257 -160 363 -50 70 -2681 2702 -2782 2782 -107 86
-263 160 -394 186 -76 15 -282 13 -358 -4z m820 -796 c59 -31 92 -87 93 -160
4 -215 -324 -231 -350 -17 -16 139 133 241 257 177z m499 -507 c43 -27 57 -42
78 -88 22 -51 19 -101 -10 -157 -54 -101 -222 -110 -294 -16 -35 46 -44 134
-18 183 47 91 162 128 244 78z m501 -502 c41 -19 89 -87 91 -128 1 -15 2 -34
3 -40 1 -7 -2 -26 -8 -43 -30 -97 -129 -142 -231 -108 -72 25 -107 75 -108
158 -2 135 131 220 253 161z m487 -491 c89 -37 125 -113 102 -215 -12 -52 -30
-75 -82 -101 -77 -40 -180 -15 -231 54 -32 43 -30 150 4 200 46 68 131 93 207
62z m511 -509 c141 -74 129 -276 -20 -321 -124 -37 -232 39 -233 165 0 44 5
64 25 92 52 77 150 104 228 64z"/>
<path d="M1920 4178 c-73 -165 -64 -366 23 -518 23 -40 242 -266 827 -850 437
-437 813 -809 835 -826 161 -126 392 -146 582 -52 l42 21 -1135 1131 c-625
622 -1140 1133 -1145 1134 -5 2 -18 -16 -29 -40z"/>
<path d="M1640 2823 c-32 -6 -763 -732 -786 -781 -52 -109 58 -229 175 -191
50 16 763 726 786 782 28 70 -6 153 -75 181 -40 16 -53 17 -100 9z"/>
<path d="M2130 2319 c-27 -11 -1114 -1090 -1161 -1153 -47 -63 -34 -155 28
-200 35 -26 102 -32 139 -13 16 9 285 272 597 584 590 592 603 605 590 673
-17 93 -106 143 -193 109z"/>
<path d="M2645 1819 c-42 -12 -781 -753 -791 -792 -26 -106 60 -201 164 -182
32 6 88 57 419 388 356 357 382 385 388 425 16 102 -82 191 -180 161z"/>
</g>
</svg>
