<?xml version="1.0" encoding="utf-8"?>
<svg version="1.1" id="Layer_1" xmlns="http://www.w3.org/2000/svg"
xmlns:xlink="http://www.w3.org/1999/xlink" viewBox="0 0 100 100"
xml:space="preserve">
<style>
  path {
    fill: #153a51;
  }

  @media (prefers-color-scheme: dark) {
    path {
      fill: #FFFFFF;
    }
  }
</style>
<g>

<path d="M39.8,22.9C37.3,20.4,34,19,30.5,19c-3.5,0-6.8,1.4-9.3,3.8c-0.6,0.6-0.9,1.4-0.9,2.2c0,0.8,0.3,1.6,0.9,2.2l51.5,51.5 c1.2,1.2,3.2,1.2,4.4,0c2.5-2.5,3.8-5.8,3.8-9.3c0-3.5-1.4-6.8-3.8-9.3L39.8,22.9z M40.2,34.7c-0.5,0.5-1.1,0.7-1.8,0.7 c-0.7,0-1.3-0.3-1.8-0.7c-1-1-1-2.6,0-3.6c1-1,2.6-1,3.6,0C41.2,32.2,41.2,33.8,40.2,34.7z M47.3,41.9c-0.5,0.5-1.1,0.7-1.8,0.7 c-0.6,0-1.3-0.2-1.8-0.7c-1-1-1-2.6,0-3.6c1-1,2.6-1,3.6,0C48.3,39.3,48.3,40.9,47.3,41.9z M54.5,49.1c-0.5,0.5-1.1,0.7-1.8,0.7 c-0.6,0-1.3-0.2-1.8-0.7c-0.5-0.5-0.7-1.1-0.7-1.8s0.3-1.3,0.7-1.8c1-1,2.6-1,3.6,0c0.5,0.5,0.7,1.1,0.7,1.8S55,48.6,54.5,49.1z M61.7,56.2c-0.5,0.5-1.1,0.7-1.8,0.7c-0.7,0-1.3-0.3-1.8-0.7c-0.5-0.5-0.7-1.1-0.7-1.8c0-0.7,0.3-1.3,0.7-1.8c1-1,2.6-1,3.6,0 c0.5,0.5,0.7,1.1,0.7,1.8C62.4,55.1,62.2,55.8,61.7,56.2z M68.8,63.4c-0.5,0.5-1.1,0.7-1.8,0.7c-0.6,0-1.3-0.2-1.8-0.7 c-1-1-1-2.6,0-3.6c1-1,2.6-1,3.6,0C69.8,60.8,69.8,62.4,68.8,63.4z" />

<path d="M26.7,43.7c0,2.2,0.8,4.2,2.4,5.7l21.5,21.5c2.7,2.7,6.7,3.1,9.8,1.2L27.8,39.6C27.1,40.8,26.7,42.2,26.7,43.7z" />

<path d="M86.5,13.5c-2-2-5.2-2-7.2,0c-1.5,1.5-1.9,3.6-1.1,5.5c-0.1,0.1-0.2,0.2-0.3,0.3l-2.3,2.3l-2.9,2.9 c-8.2-7.1-19.9-8.7-29.6-4l36.5,36.5c4.7-9.8,3.2-21.4-4-29.6l2.9-2.9l2.3-2.3c0.1-0.1,0.2-0.2,0.3-0.3c1.8,0.7,4,0.4,5.5-1.1 C88.5,18.7,88.5,15.5,86.5,13.5z" />

<path d="M15.5,73.1l10-10c0.8-0.8,0.8-2.1,0-2.9c-0.8-0.8-2.1-0.8-2.9,0l-10,10c-0.8,0.8-0.8,2.1,0,2.9c0.4,0.4,0.9,0.6,1.4,0.6 C14.5,73.7,15.1,73.5,15.5,73.1z" />

<path d="M32.7,67.3c-0.8-0.8-2.1-0.8-2.9,0L14,83.1c-0.8,0.8-0.8,2.1,0,2.9c0.4,0.4,0.9,0.6,1.4,0.6s1-0.2,1.4-0.6l15.8-15.8 C33.4,69.4,33.4,68.1,32.7,67.3z" />

<path d="M37,74.5l-10,10c-0.8,0.8-0.8,2.1,0,2.9c0.4,0.4,0.9,0.6,1.4,0.6c0.5,0,1-0.2,1.4-0.6l10-10c0.8-0.8,0.8-2.1,0-2.9 C39,73.7,37.7,73.7,37,74.5z" />
</g>
</svg>
