<?xml version="1.0" encoding="UTF-8" standalone="no"?>
<!DOCTYPE svg PUBLIC "-//W3C//DTD SVG 1.1//EN"
 "http://www.w3.org/Graphics/SVG/1.1/DTD/svg11.dtd">
<!-- Generated by graphviz version 2.44.0 ()
 -->
<!-- Title: dependency&#45;cruiser output Pages: 1 -->
<svg width="356pt" height="106pt"
 viewBox="0.00 0.00 356.00 106.00" xmlns="http://www.w3.org/2000/svg" xmlns:xlink="http://www.w3.org/1999/xlink">
<g id="graph0" class="graph" transform="scale(1 1) rotate(0) translate(4 102)">
<title>dependency&#45;cruiser output</title>
<polygon fill="white" stroke="transparent" points="-4,4 -4,-102 352,-102 352,4 -4,4"/>
<g id="clust1" class="cluster">
<title>cluster_src</title>
<path fill="#ffffff" stroke="black" stroke-width="2" d="M20,-8C20,-8 328,-8 328,-8 334,-8 340,-14 340,-20 340,-20 340,-78 340,-78 340,-84 334,-90 328,-90 328,-90 20,-90 20,-90 14,-90 8,-84 8,-78 8,-78 8,-20 8,-20 8,-14 14,-8 20,-8"/>
<text text-anchor="middle" x="174" y="-78.8" font-family="Helvetica,sans-Serif" font-weight="bold" font-size="9.00">src</text>
</g>
<!-- src/index.ts -->
<g id="node1" class="node">
<title>src/index.ts</title>
<g id="a_node1"><a xlink:href="src/index.ts" xlink:title="index.ts">
<path fill="#ddfeff" stroke="black" d="M105.5,-64C105.5,-64 40.5,-64 40.5,-64 37.5,-64 34.5,-61 34.5,-58 34.5,-58 34.5,-52 34.5,-52 34.5,-49 37.5,-46 40.5,-46 40.5,-46 105.5,-46 105.5,-46 108.5,-46 111.5,-49 111.5,-52 111.5,-52 111.5,-58 111.5,-58 111.5,-61 108.5,-64 105.5,-64"/>
<text text-anchor="middle" x="73" y="-52.8" font-family="Helvetica,sans-Serif" font-size="9.00">index.ts</text>
</a>
</g>
</g>
<!-- src/simpleIteratorObject.ts -->
<g id="node2" class="node">
<title>src/simpleIteratorObject.ts</title>
<g id="a_node2"><a xlink:href="src/simpleIteratorObject.ts" xlink:title="simpleIteratorObject.ts">
<path fill="#ddfeff" stroke="black" d="M326,-64C326,-64 149,-64 149,-64 146,-64 143,-61 143,-58 143,-58 143,-52 143,-52 143,-49 146,-46 149,-46 149,-46 326,-46 326,-46 329,-46 332,-49 332,-52 332,-52 332,-58 332,-58 332,-61 329,-64 326,-64"/>
<text text-anchor="middle" x="237.5" y="-52.8" font-family="Helvetica,sans-Serif" font-size="9.00">simpleIteratorObject.ts</text>
</a>
</g>
</g>
<!-- src/index.ts&#45;&gt;src/simpleIteratorObject.ts -->
<g id="edge1" class="edge">
<title>src/index.ts&#45;&gt;src/simpleIteratorObject.ts</title>
<path fill="none" stroke="#000000" stroke-width="2" stroke-opacity="0.200000" d="M111.69,-55C119.46,-55 127.98,-55 136.82,-55"/>
<polygon fill="#000000" fill-opacity="0.200000" stroke="#000000" stroke-width="2" stroke-opacity="0.200000" points="136.97,-57.1 142.97,-55 136.97,-52.9 136.97,-57.1"/>
</g>
<!-- src/vite&#45;env.d.ts -->
<g id="node3" class="node">
<title>src/vite&#45;env.d.ts</title>
<g id="a_node3"><a xlink:href="src/vite-env.d.ts" xlink:title="vite&#45;env.d.ts">
<path fill="#ccffcc" stroke="black" d="M124,-34C124,-34 22,-34 22,-34 19,-34 16,-31 16,-28 16,-28 16,-22 16,-22 16,-19 19,-16 22,-16 22,-16 124,-16 124,-16 127,-16 130,-19 130,-22 130,-22 130,-28 130,-28 130,-31 127,-34 124,-34"/>
<text text-anchor="middle" x="73" y="-22.8" font-family="Helvetica,sans-Serif" font-size="9.00">vite&#45;env.d.ts</text>
</a>
</g>
</g>
</g>
</svg>
