<?xml version="1.0" encoding="UTF-8" standalone="no"?>
<!DOCTYPE svg PUBLIC "-//W3C//DTD SVG 1.1//EN"
 "http://www.w3.org/Graphics/SVG/1.1/DTD/svg11.dtd">
<!-- Generated by graphviz version 2.50.0 (20220206.1658)
 -->
<!-- Title: dependency&#45;cruiser output Pages: 1 -->
<svg width="247pt" height="339pt"
 viewBox="0.00 0.00 246.52 339.00" xmlns="http://www.w3.org/2000/svg" xmlns:xlink="http://www.w3.org/1999/xlink">
<g id="graph0" class="graph" transform="scale(1 1) rotate(0) translate(4 335)">
<title>dependency&#45;cruiser output</title>
<polygon fill="white" stroke="transparent" points="-4,4 -4,-335 242.52,-335 242.52,4 -4,4"/>
<g id="clust8" class="cluster">
<title>cluster_src</title>
<path fill="#ffffff" stroke="black" stroke-width="2" d="M20,-70C20,-70 76.52,-70 76.52,-70 82.52,-70 88.52,-76 88.52,-82 88.52,-82 88.52,-142 88.52,-142 88.52,-148 82.52,-154 76.52,-154 76.52,-154 20,-154 20,-154 14,-154 8,-148 8,-142 8,-142 8,-82 8,-82 8,-76 14,-70 20,-70"/>
<text text-anchor="middle" x="48.26" y="-141.9" font-family="Helvetica,sans-Serif" font-weight="bold" font-size="9.00">src</text>
</g>
<g id="clust1" class="cluster">
<title>cluster_..</title>
<path fill="#ffffff" stroke="black" stroke-width="2" d="M108.52,-8C108.52,-8 218.52,-8 218.52,-8 224.52,-8 230.52,-14 230.52,-20 230.52,-20 230.52,-311 230.52,-311 230.52,-317 224.52,-323 218.52,-323 218.52,-323 108.52,-323 108.52,-323 102.52,-323 96.52,-317 96.52,-311 96.52,-311 96.52,-20 96.52,-20 96.52,-14 102.52,-8 108.52,-8"/>
<text text-anchor="middle" x="163.52" y="-310.9" font-family="Helvetica,sans-Serif" font-weight="bold" font-size="9.00">..</text>
</g>
<g id="clust2" class="cluster">
<title>cluster_../..</title>
<path fill="#ffffff" stroke="black" stroke-width="2" d="M116.52,-16C116.52,-16 210.52,-16 210.52,-16 216.52,-16 222.52,-22 222.52,-28 222.52,-28 222.52,-284 222.52,-284 222.52,-290 216.52,-296 210.52,-296 210.52,-296 116.52,-296 116.52,-296 110.52,-296 104.52,-290 104.52,-284 104.52,-284 104.52,-28 104.52,-28 104.52,-22 110.52,-16 116.52,-16"/>
<text text-anchor="middle" x="163.52" y="-283.9" font-family="Helvetica,sans-Serif" font-weight="bold" font-size="9.00">..</text>
</g>
<g id="clust3" class="cluster">
<title>cluster_../../node_modules</title>
<path fill="#ffffff" stroke="black" stroke-width="2" d="M124.52,-24C124.52,-24 202.52,-24 202.52,-24 208.52,-24 214.52,-30 214.52,-36 214.52,-36 214.52,-257 214.52,-257 214.52,-263 208.52,-269 202.52,-269 202.52,-269 124.52,-269 124.52,-269 118.52,-269 112.52,-263 112.52,-257 112.52,-257 112.52,-36 112.52,-36 112.52,-30 118.52,-24 124.52,-24"/>
<text text-anchor="middle" x="163.52" y="-256.9" font-family="Helvetica,sans-Serif" font-weight="bold" font-size="9.00">node_modules</text>
</g>
<g id="clust7" class="cluster">
<title>cluster_../../node_modules/twind</title>
<path fill="#ffffff" stroke="black" stroke-width="2" d="M140.52,-189C140.52,-189 186.52,-189 186.52,-189 192.52,-189 198.52,-195 198.52,-201 198.52,-201 198.52,-230 198.52,-230 198.52,-236 192.52,-242 186.52,-242 186.52,-242 140.52,-242 140.52,-242 134.52,-242 128.52,-236 128.52,-230 128.52,-230 128.52,-201 128.52,-201 128.52,-195 134.52,-189 140.52,-189"/>
<text text-anchor="middle" x="163.52" y="-229.9" font-family="Helvetica,sans-Serif" font-weight="bold" font-size="9.00">twind</text>
</g>
<g id="clust4" class="cluster">
<title>cluster_../../node_modules/@thi.ng</title>
<path fill="#ffffff" stroke="black" stroke-width="2" d="M132.52,-32C132.52,-32 194.52,-32 194.52,-32 200.52,-32 206.52,-38 206.52,-44 206.52,-44 206.52,-169 206.52,-169 206.52,-175 200.52,-181 194.52,-181 194.52,-181 132.52,-181 132.52,-181 126.52,-181 120.52,-175 120.52,-169 120.52,-169 120.52,-44 120.52,-44 120.52,-38 126.52,-32 132.52,-32"/>
<text text-anchor="middle" x="163.52" y="-168.9" font-family="Helvetica,sans-Serif" font-weight="bold" font-size="9.00">@thi.ng</text>
</g>
<g id="clust6" class="cluster">
<title>cluster_../../node_modules/@thi.ng/rdom</title>
<path fill="#ffffff" stroke="black" stroke-width="2" d="M140.52,-101C140.52,-101 186.52,-101 186.52,-101 192.52,-101 198.52,-107 198.52,-113 198.52,-113 198.52,-142 198.52,-142 198.52,-148 192.52,-154 186.52,-154 186.52,-154 140.52,-154 140.52,-154 134.52,-154 128.52,-148 128.52,-142 128.52,-142 128.52,-113 128.52,-113 128.52,-107 134.52,-101 140.52,-101"/>
<text text-anchor="middle" x="163.52" y="-141.9" font-family="Helvetica,sans-Serif" font-weight="bold" font-size="9.00">rdom</text>
</g>
<g id="clust5" class="cluster">
<title>cluster_../../node_modules/@thi.ng/hiccup&#45;html</title>
<path fill="#ffffff" stroke="black" stroke-width="2" d="M140.52,-40C140.52,-40 186.52,-40 186.52,-40 192.52,-40 198.52,-46 198.52,-52 198.52,-52 198.52,-81 198.52,-81 198.52,-87 192.52,-93 186.52,-93 186.52,-93 140.52,-93 140.52,-93 134.52,-93 128.52,-87 128.52,-81 128.52,-81 128.52,-52 128.52,-52 128.52,-46 134.52,-40 140.52,-40"/>
<text text-anchor="middle" x="163.52" y="-80.9" font-family="Helvetica,sans-Serif" font-weight="bold" font-size="9.00">hiccup&#45;html</text>
</g>
<!-- ../../node_modules/@thi.ng/hiccup&#45;html/index.js -->
<g id="node1" class="node">
<title>../../node_modules/@thi.ng/hiccup&#45;html/index.js</title>
<g id="a_node1"><a xlink:href="../../node_modules/@thi.ng/hiccup-html/index.js" xlink:title="index.js">
<path fill="#c40b0a" fill-opacity="0.101961" stroke="black" d="M184.32,-66.3C184.32,-66.3 142.72,-66.3 142.72,-66.3 139.62,-66.3 136.52,-63.2 136.52,-60.1 136.52,-60.1 136.52,-53.9 136.52,-53.9 136.52,-50.8 139.62,-47.7 142.72,-47.7 142.72,-47.7 184.32,-47.7 184.32,-47.7 187.42,-47.7 190.52,-50.8 190.52,-53.9 190.52,-53.9 190.52,-60.1 190.52,-60.1 190.52,-63.2 187.42,-66.3 184.32,-66.3"/>
<text text-anchor="start" x="148.26" y="-54.3" font-family="Helvetica,sans-Serif" font-size="9.00" fill="#c40b0a">index.js</text>
</a>
</g>
</g>
<!-- ../../node_modules/@thi.ng/rdom/index.js -->
<g id="node2" class="node">
<title>../../node_modules/@thi.ng/rdom/index.js</title>
<g id="a_node2"><a xlink:href="../../node_modules/@thi.ng/rdom/index.js" xlink:title="index.js">
<path fill="#c40b0a" fill-opacity="0.101961" stroke="black" d="M184.32,-127.3C184.32,-127.3 142.72,-127.3 142.72,-127.3 139.62,-127.3 136.52,-124.2 136.52,-121.1 136.52,-121.1 136.52,-114.9 136.52,-114.9 136.52,-111.8 139.62,-108.7 142.72,-108.7 142.72,-108.7 184.32,-108.7 184.32,-108.7 187.42,-108.7 190.52,-111.8 190.52,-114.9 190.52,-114.9 190.52,-121.1 190.52,-121.1 190.52,-124.2 187.42,-127.3 184.32,-127.3"/>
<text text-anchor="start" x="148.26" y="-115.3" font-family="Helvetica,sans-Serif" font-size="9.00" fill="#c40b0a">index.js</text>
</a>
</g>
</g>
<!-- ../../node_modules/twind/twind.cjs -->
<g id="node3" class="node">
<title>../../node_modules/twind/twind.cjs</title>
<g id="a_node3"><a xlink:href="../../node_modules/twind/twind.cjs" xlink:title="twind.cjs">
<path fill="#c40b0a" fill-opacity="0.101961" stroke="black" d="M184.32,-215.3C184.32,-215.3 142.72,-215.3 142.72,-215.3 139.62,-215.3 136.52,-212.2 136.52,-209.1 136.52,-209.1 136.52,-202.9 136.52,-202.9 136.52,-199.8 139.62,-196.7 142.72,-196.7 142.72,-196.7 184.32,-196.7 184.32,-196.7 187.42,-196.7 190.52,-199.8 190.52,-202.9 190.52,-202.9 190.52,-209.1 190.52,-209.1 190.52,-212.2 187.42,-215.3 184.32,-215.3"/>
<text text-anchor="start" x="146.26" y="-203.3" font-family="Helvetica,sans-Serif" font-size="9.00" fill="#c40b0a">twind.cjs</text>
</a>
</g>
</g>
<!-- src/index.ts -->
<g id="node4" class="node">
<title>src/index.ts</title>
<g id="a_node4"><a xlink:href="src/index.ts" xlink:title="index.ts">
<path fill="#ddfeff" stroke="black" d="M69.06,-127.3C69.06,-127.3 27.46,-127.3 27.46,-127.3 24.36,-127.3 21.26,-124.2 21.26,-121.1 21.26,-121.1 21.26,-114.9 21.26,-114.9 21.26,-111.8 24.36,-108.7 27.46,-108.7 27.46,-108.7 69.06,-108.7 69.06,-108.7 72.16,-108.7 75.26,-111.8 75.26,-114.9 75.26,-114.9 75.26,-121.1 75.26,-121.1 75.26,-124.2 72.16,-127.3 69.06,-127.3"/>
<text text-anchor="start" x="32.75" y="-115.3" font-family="Helvetica,sans-Serif" font-size="9.00">index.ts</text>
</a>
</g>
</g>
<!-- src/index.ts&#45;&gt;../../node_modules/@thi.ng/hiccup&#45;html/index.js -->
<g id="edge1" class="edge">
<title>src/index.ts&#45;&gt;../../node_modules/@thi.ng/hiccup&#45;html/index.js</title>
<path fill="none" stroke="#000000" stroke-opacity="0.200000" d="M74.03,-108.61C78.9,-106.56 83.92,-104.32 88.52,-102 107.89,-92.24 128.94,-79.19 143.61,-69.65"/>
<polygon fill="#000000" fill-opacity="0.200000" stroke="#000000" stroke-opacity="0.200000" points="144.84,-71.36 148.71,-66.31 142.54,-67.84 144.84,-71.36"/>
</g>
<!-- src/index.ts&#45;&gt;../../node_modules/@thi.ng/rdom/index.js -->
<g id="edge2" class="edge">
<title>src/index.ts&#45;&gt;../../node_modules/@thi.ng/rdom/index.js</title>
<path fill="none" stroke="#000000" stroke-opacity="0.200000" d="M75.53,-118C91.82,-118 112.88,-118 130.2,-118"/>
<polygon fill="#000000" fill-opacity="0.200000" stroke="#000000" stroke-opacity="0.200000" points="130.39,-120.1 136.39,-118 130.39,-115.9 130.39,-120.1"/>
</g>
<!-- src/index.ts&#45;&gt;../../node_modules/twind/twind.cjs -->
<g id="edge3" class="edge">
<title>src/index.ts&#45;&gt;../../node_modules/twind/twind.cjs</title>
<path fill="none" stroke="#000000" stroke-opacity="0.200000" d="M60.4,-127.46C69.89,-135.46 83.96,-147.16 96.52,-157 112.39,-169.43 130.84,-183.06 144.19,-192.78"/>
<polygon fill="#000000" fill-opacity="0.200000" stroke="#000000" stroke-opacity="0.200000" points="143.13,-194.61 149.22,-196.43 145.6,-191.21 143.13,-194.61"/>
</g>
<!-- src/vite&#45;env.d.ts -->
<g id="node5" class="node">
<title>src/vite&#45;env.d.ts</title>
<g id="a_node5"><a xlink:href="src/vite-env.d.ts" xlink:title="vite&#45;env.d.ts">
<path fill="#ccffcc" stroke="black" d="M74.08,-96.3C74.08,-96.3 22.44,-96.3 22.44,-96.3 19.34,-96.3 16.24,-93.2 16.24,-90.1 16.24,-90.1 16.24,-83.9 16.24,-83.9 16.24,-80.8 19.34,-77.7 22.44,-77.7 22.44,-77.7 74.08,-77.7 74.08,-77.7 77.18,-77.7 80.28,-80.8 80.28,-83.9 80.28,-83.9 80.28,-90.1 80.28,-90.1 80.28,-93.2 77.18,-96.3 74.08,-96.3"/>
<text text-anchor="start" x="24" y="-84.3" font-family="Helvetica,sans-Serif" font-size="9.00">vite&#45;env.d.ts</text>
</a>
</g>
</g>
</g>
</svg>
