<?xml version="1.0" encoding="UTF-8" standalone="no"?>
<!DOCTYPE svg PUBLIC "-//W3C//DTD SVG 1.1//EN"
 "http://www.w3.org/Graphics/SVG/1.1/DTD/svg11.dtd">
<!-- Generated by graphviz version 2.44.0 ()
 -->
<!-- Title: dependency&#45;cruiser output Pages: 1 -->
<svg width="356pt" height="872pt"
 viewBox="0.00 0.00 356.00 872.00" xmlns="http://www.w3.org/2000/svg" xmlns:xlink="http://www.w3.org/1999/xlink">
<g id="graph0" class="graph" transform="scale(1 1) rotate(0) translate(4 868)">
<title>dependency&#45;cruiser output</title>
<polygon fill="white" stroke="transparent" points="-4,4 -4,-868 352,-868 352,4 -4,4"/>
<g id="clust1" class="cluster">
<title>cluster_..</title>
<path fill="#ffffff" stroke="black" stroke-width="2" d="M158,-8C158,-8 328,-8 328,-8 334,-8 340,-14 340,-20 340,-20 340,-844 340,-844 340,-850 334,-856 328,-856 328,-856 158,-856 158,-856 152,-856 146,-850 146,-844 146,-844 146,-20 146,-20 146,-14 152,-8 158,-8"/>
<text text-anchor="middle" x="243" y="-844.8" font-family="Helvetica,sans-Serif" font-weight="bold" font-size="9.00">..</text>
</g>
<g id="clust2" class="cluster">
<title>cluster_../..</title>
<path fill="#ffffff" stroke="black" stroke-width="2" d="M166,-16C166,-16 320,-16 320,-16 326,-16 332,-22 332,-28 332,-28 332,-818 332,-818 332,-824 326,-830 320,-830 320,-830 166,-830 166,-830 160,-830 154,-824 154,-818 154,-818 154,-28 154,-28 154,-22 160,-16 166,-16"/>
<text text-anchor="middle" x="243" y="-818.8" font-family="Helvetica,sans-Serif" font-weight="bold" font-size="9.00">..</text>
</g>
<g id="clust3" class="cluster">
<title>cluster_../../node_modules</title>
<path fill="#ffffff" stroke="black" stroke-width="2" d="M174,-24C174,-24 312,-24 312,-24 318,-24 324,-30 324,-36 324,-36 324,-792 324,-792 324,-798 318,-804 312,-804 312,-804 174,-804 174,-804 168,-804 162,-798 162,-792 162,-792 162,-36 162,-36 162,-30 168,-24 174,-24"/>
<text text-anchor="middle" x="243" y="-792.8" font-family="Helvetica,sans-Serif" font-weight="bold" font-size="9.00">node_modules</text>
</g>
<g id="clust4" class="cluster">
<title>cluster_../../node_modules/@thi.ng</title>
<path fill="#ffffff" stroke="black" stroke-width="2" d="M182,-92C182,-92 304,-92 304,-92 310,-92 316,-98 316,-104 316,-104 316,-766 316,-766 316,-772 310,-778 304,-778 304,-778 182,-778 182,-778 176,-778 170,-772 170,-766 170,-766 170,-104 170,-104 170,-98 176,-92 182,-92"/>
<text text-anchor="middle" x="243" y="-766.8" font-family="Helvetica,sans-Serif" font-weight="bold" font-size="9.00">@thi.ng</text>
</g>
<g id="clust5" class="cluster">
<title>cluster_../../node_modules/@thi.ng/checks</title>
<path fill="#ffffff" stroke="black" stroke-width="2" d="M193.5,-700C193.5,-700 292.5,-700 292.5,-700 298.5,-700 304.5,-706 304.5,-712 304.5,-712 304.5,-740 304.5,-740 304.5,-746 298.5,-752 292.5,-752 292.5,-752 193.5,-752 193.5,-752 187.5,-752 181.5,-746 181.5,-740 181.5,-740 181.5,-712 181.5,-712 181.5,-706 187.5,-700 193.5,-700"/>
<text text-anchor="middle" x="243" y="-740.8" font-family="Helvetica,sans-Serif" font-weight="bold" font-size="9.00">checks</text>
</g>
<g id="clust6" class="cluster">
<title>cluster_../../node_modules/@thi.ng/compose</title>
<path fill="#ffffff" stroke="black" stroke-width="2" d="M201,-640C201,-640 285,-640 285,-640 291,-640 297,-646 297,-652 297,-652 297,-680 297,-680 297,-686 291,-692 285,-692 285,-692 201,-692 201,-692 195,-692 189,-686 189,-680 189,-680 189,-652 189,-652 189,-646 195,-640 201,-640"/>
<text text-anchor="middle" x="243" y="-680.8" font-family="Helvetica,sans-Serif" font-weight="bold" font-size="9.00">compose</text>
</g>
<g id="clust8" class="cluster">
<title>cluster_../../node_modules/@thi.ng/rdom</title>
<path fill="#ffffff" stroke="black" stroke-width="2" d="M201,-520C201,-520 285,-520 285,-520 291,-520 297,-526 297,-532 297,-532 297,-620 297,-620 297,-626 291,-632 285,-632 285,-632 201,-632 201,-632 195,-632 189,-626 189,-620 189,-620 189,-532 189,-532 189,-526 195,-520 201,-520"/>
<text text-anchor="middle" x="243" y="-620.8" font-family="Helvetica,sans-Serif" font-weight="bold" font-size="9.00">rdom</text>
</g>
<g id="clust7" class="cluster">
<title>cluster_../../node_modules/@thi.ng/hiccup&#45;html</title>
<path fill="#ffffff" stroke="black" stroke-width="2" d="M205.5,-460C205.5,-460 280.5,-460 280.5,-460 286.5,-460 292.5,-466 292.5,-472 292.5,-472 292.5,-500 292.5,-500 292.5,-506 286.5,-512 280.5,-512 280.5,-512 205.5,-512 205.5,-512 199.5,-512 193.5,-506 193.5,-500 193.5,-500 193.5,-472 193.5,-472 193.5,-466 199.5,-460 205.5,-460"/>
<text text-anchor="middle" x="243" y="-500.8" font-family="Helvetica,sans-Serif" font-weight="bold" font-size="9.00">hiccup&#45;html</text>
</g>
<g id="clust9" class="cluster">
<title>cluster_../../node_modules/@thi.ng/rstream</title>
<path fill="#ffffff" stroke="black" stroke-width="2" d="M190,-220C190,-220 296,-220 296,-220 302,-220 308,-226 308,-232 308,-232 308,-440 308,-440 308,-446 302,-452 296,-452 296,-452 190,-452 190,-452 184,-452 178,-446 178,-440 178,-440 178,-232 178,-232 178,-226 184,-220 190,-220"/>
<text text-anchor="middle" x="243" y="-440.8" font-family="Helvetica,sans-Serif" font-weight="bold" font-size="9.00">rstream</text>
</g>
<g id="clust10" class="cluster">
<title>cluster_../../node_modules/@thi.ng/transducers</title>
<path fill="#ffffff" stroke="black" stroke-width="2" d="M201,-100C201,-100 285,-100 285,-100 291,-100 297,-106 297,-112 297,-112 297,-200 297,-200 297,-206 291,-212 285,-212 285,-212 201,-212 201,-212 195,-212 189,-206 189,-200 189,-200 189,-112 189,-112 189,-106 195,-100 201,-100"/>
<text text-anchor="middle" x="243" y="-200.8" font-family="Helvetica,sans-Serif" font-weight="bold" font-size="9.00">transducers</text>
</g>
<g id="clust11" class="cluster">
<title>cluster_../../node_modules/twind</title>
<path fill="#ffffff" stroke="black" stroke-width="2" d="M205,-32C205,-32 281,-32 281,-32 287,-32 293,-38 293,-44 293,-44 293,-72 293,-72 293,-78 287,-84 281,-84 281,-84 205,-84 205,-84 199,-84 193,-78 193,-72 193,-72 193,-44 193,-44 193,-38 199,-32 205,-32"/>
<text text-anchor="middle" x="243" y="-72.8" font-family="Helvetica,sans-Serif" font-weight="bold" font-size="9.00">twind</text>
</g>
<g id="clust12" class="cluster">
<title>cluster_src</title>
<path fill="#ffffff" stroke="black" stroke-width="2" d="M20,-310C20,-310 126,-310 126,-310 132,-310 138,-316 138,-322 138,-322 138,-380 138,-380 138,-386 132,-392 126,-392 126,-392 20,-392 20,-392 14,-392 8,-386 8,-380 8,-380 8,-322 8,-322 8,-316 14,-310 20,-310"/>
<text text-anchor="middle" x="73" y="-380.8" font-family="Helvetica,sans-Serif" font-weight="bold" font-size="9.00">src</text>
</g>
<!-- ../../node_modules/@thi.ng/checks/is&#45;string.js -->
<g id="node1" class="node">
<title>../../node_modules/@thi.ng/checks/is&#45;string.js</title>
<g id="a_node1"><a xlink:href="../../node_modules/@thi.ng/checks/is-string.js" xlink:title="is&#45;string.js">
<path fill="#c40b0a" fill-opacity="0.101961" stroke="black" d="M290.5,-726C290.5,-726 195.5,-726 195.5,-726 192.5,-726 189.5,-723 189.5,-720 189.5,-720 189.5,-714 189.5,-714 189.5,-711 192.5,-708 195.5,-708 195.5,-708 290.5,-708 290.5,-708 293.5,-708 296.5,-711 296.5,-714 296.5,-714 296.5,-720 296.5,-720 296.5,-723 293.5,-726 290.5,-726"/>
<text text-anchor="start" x="197.5" y="-714.8" font-family="Helvetica,sans-Serif" font-size="9.00" fill="#c40b0a">is&#45;string.js</text>
</a>
</g>
</g>
<!-- ../../node_modules/@thi.ng/compose/delayed.js -->
<g id="node2" class="node">
<title>../../node_modules/@thi.ng/compose/delayed.js</title>
<g id="a_node2"><a xlink:href="../../node_modules/@thi.ng/compose/delayed.js" xlink:title="delayed.js">
<path fill="#c40b0a" fill-opacity="0.101961" stroke="black" d="M283,-666C283,-666 203,-666 203,-666 200,-666 197,-663 197,-660 197,-660 197,-654 197,-654 197,-651 200,-648 203,-648 203,-648 283,-648 283,-648 286,-648 289,-651 289,-654 289,-654 289,-660 289,-660 289,-663 286,-666 283,-666"/>
<text text-anchor="start" x="205" y="-654.8" font-family="Helvetica,sans-Serif" font-size="9.00" fill="#c40b0a">delayed.js</text>
</a>
</g>
</g>
<!-- ../../node_modules/@thi.ng/hiccup&#45;html/index.js -->
<g id="node3" class="node">
<title>../../node_modules/@thi.ng/hiccup&#45;html/index.js</title>
<g id="a_node3"><a xlink:href="../../node_modules/@thi.ng/hiccup-html/index.js" xlink:title="index.js">
<path fill="#c40b0a" fill-opacity="0.101961" stroke="black" d="M275.5,-486C275.5,-486 210.5,-486 210.5,-486 207.5,-486 204.5,-483 204.5,-480 204.5,-480 204.5,-474 204.5,-474 204.5,-471 207.5,-468 210.5,-468 210.5,-468 275.5,-468 275.5,-468 278.5,-468 281.5,-471 281.5,-474 281.5,-474 281.5,-480 281.5,-480 281.5,-483 278.5,-486 275.5,-486"/>
<text text-anchor="start" x="212.5" y="-474.8" font-family="Helvetica,sans-Serif" font-size="9.00" fill="#c40b0a">index.js</text>
</a>
</g>
</g>
<!-- ../../node_modules/@thi.ng/rdom/compile.js -->
<g id="node4" class="node">
<title>../../node_modules/@thi.ng/rdom/compile.js</title>
<g id="a_node4"><a xlink:href="../../node_modules/@thi.ng/rdom/compile.js" xlink:title="compile.js">
<path fill="#c40b0a" fill-opacity="0.101961" stroke="black" d="M283,-606C283,-606 203,-606 203,-606 200,-606 197,-603 197,-600 197,-600 197,-594 197,-594 197,-591 200,-588 203,-588 203,-588 283,-588 283,-588 286,-588 289,-591 289,-594 289,-594 289,-600 289,-600 289,-603 286,-606 283,-606"/>
<text text-anchor="start" x="205" y="-594.8" font-family="Helvetica,sans-Serif" font-size="9.00" fill="#c40b0a">compile.js</text>
</a>
</g>
</g>
<!-- ../../node_modules/@thi.ng/rdom/list.js -->
<g id="node5" class="node">
<title>../../node_modules/@thi.ng/rdom/list.js</title>
<g id="a_node5"><a xlink:href="../../node_modules/@thi.ng/rdom/list.js" xlink:title="list.js">
<path fill="#c40b0a" fill-opacity="0.101961" stroke="black" d="M271.5,-576C271.5,-576 214.5,-576 214.5,-576 211.5,-576 208.5,-573 208.5,-570 208.5,-570 208.5,-564 208.5,-564 208.5,-561 211.5,-558 214.5,-558 214.5,-558 271.5,-558 271.5,-558 274.5,-558 277.5,-561 277.5,-564 277.5,-564 277.5,-570 277.5,-570 277.5,-573 274.5,-576 271.5,-576"/>
<text text-anchor="start" x="216.5" y="-564.8" font-family="Helvetica,sans-Serif" font-size="9.00" fill="#c40b0a">list.js</text>
</a>
</g>
</g>
<!-- ../../node_modules/@thi.ng/rdom/replace.js -->
<g id="node6" class="node">
<title>../../node_modules/@thi.ng/rdom/replace.js</title>
<g id="a_node6"><a xlink:href="../../node_modules/@thi.ng/rdom/replace.js" xlink:title="replace.js">
<path fill="#c40b0a" fill-opacity="0.101961" stroke="black" d="M283,-546C283,-546 203,-546 203,-546 200,-546 197,-543 197,-540 197,-540 197,-534 197,-534 197,-531 200,-528 203,-528 203,-528 283,-528 283,-528 286,-528 289,-531 289,-534 289,-534 289,-540 289,-540 289,-543 286,-546 283,-546"/>
<text text-anchor="start" x="205" y="-534.8" font-family="Helvetica,sans-Serif" font-size="9.00" fill="#c40b0a">replace.js</text>
</a>
</g>
</g>
<!-- ../../node_modules/@thi.ng/rstream/api.js -->
<g id="node7" class="node">
<title>../../node_modules/@thi.ng/rstream/api.js</title>
<g id="a_node7"><a xlink:href="../../node_modules/@thi.ng/rstream/api.js" xlink:title="api.js">
<path fill="#c40b0a" fill-opacity="0.101961" stroke="black" d="M268,-426C268,-426 218,-426 218,-426 215,-426 212,-423 212,-420 212,-420 212,-414 212,-414 212,-411 215,-408 218,-408 218,-408 268,-408 268,-408 271,-408 274,-411 274,-414 274,-414 274,-420 274,-420 274,-423 271,-426 268,-426"/>
<text text-anchor="start" x="220" y="-414.8" font-family="Helvetica,sans-Serif" font-size="9.00" fill="#c40b0a">api.js</text>
</a>
</g>
</g>
<!-- ../../node_modules/@thi.ng/rstream/event.js -->
<g id="node8" class="node">
<title>../../node_modules/@thi.ng/rstream/event.js</title>
<g id="a_node8"><a xlink:href="../../node_modules/@thi.ng/rstream/event.js" xlink:title="event.js">
<path fill="#c40b0a" fill-opacity="0.101961" stroke="black" d="M275.5,-396C275.5,-396 210.5,-396 210.5,-396 207.5,-396 204.5,-393 204.5,-390 204.5,-390 204.5,-384 204.5,-384 204.5,-381 207.5,-378 210.5,-378 210.5,-378 275.5,-378 275.5,-378 278.5,-378 281.5,-381 281.5,-384 281.5,-384 281.5,-390 281.5,-390 281.5,-393 278.5,-396 275.5,-396"/>
<text text-anchor="start" x="212.5" y="-384.8" font-family="Helvetica,sans-Serif" font-size="9.00" fill="#c40b0a">event.js</text>
</a>
</g>
</g>
<!-- ../../node_modules/@thi.ng/rstream/interval.js -->
<g id="node9" class="node">
<title>../../node_modules/@thi.ng/rstream/interval.js</title>
<g id="a_node9"><a xlink:href="../../node_modules/@thi.ng/rstream/interval.js" xlink:title="interval.js">
<path fill="#c40b0a" fill-opacity="0.101961" stroke="black" d="M286.5,-366C286.5,-366 199.5,-366 199.5,-366 196.5,-366 193.5,-363 193.5,-360 193.5,-360 193.5,-354 193.5,-354 193.5,-351 196.5,-348 199.5,-348 199.5,-348 286.5,-348 286.5,-348 289.5,-348 292.5,-351 292.5,-354 292.5,-354 292.5,-360 292.5,-360 292.5,-363 289.5,-366 286.5,-366"/>
<text text-anchor="start" x="201.5" y="-354.8" font-family="Helvetica,sans-Serif" font-size="9.00" fill="#c40b0a">interval.js</text>
</a>
</g>
</g>
<!-- ../../node_modules/@thi.ng/rstream/iterable.js -->
<g id="node10" class="node">
<title>../../node_modules/@thi.ng/rstream/iterable.js</title>
<g id="a_node10"><a xlink:href="../../node_modules/@thi.ng/rstream/iterable.js" xlink:title="iterable.js">
<path fill="#c40b0a" fill-opacity="0.101961" stroke="black" d="M286.5,-336C286.5,-336 199.5,-336 199.5,-336 196.5,-336 193.5,-333 193.5,-330 193.5,-330 193.5,-324 193.5,-324 193.5,-321 196.5,-318 199.5,-318 199.5,-318 286.5,-318 286.5,-318 289.5,-318 292.5,-321 292.5,-324 292.5,-324 292.5,-330 292.5,-330 292.5,-333 289.5,-336 286.5,-336"/>
<text text-anchor="start" x="201.5" y="-324.8" font-family="Helvetica,sans-Serif" font-size="9.00" fill="#c40b0a">iterable.js</text>
</a>
</g>
</g>
<!-- ../../node_modules/@thi.ng/rstream/metastream.js -->
<g id="node11" class="node">
<title>../../node_modules/@thi.ng/rstream/metastream.js</title>
<g id="a_node11"><a xlink:href="../../node_modules/@thi.ng/rstream/metastream.js" xlink:title="metastream.js">
<path fill="#c40b0a" fill-opacity="0.101961" stroke="black" d="M294,-306C294,-306 192,-306 192,-306 189,-306 186,-303 186,-300 186,-300 186,-294 186,-294 186,-291 189,-288 192,-288 192,-288 294,-288 294,-288 297,-288 300,-291 300,-294 300,-294 300,-300 300,-300 300,-303 297,-306 294,-306"/>
<text text-anchor="start" x="194" y="-294.8" font-family="Helvetica,sans-Serif" font-size="9.00" fill="#c40b0a">metastream.js</text>
</a>
</g>
</g>
<!-- ../../node_modules/@thi.ng/rstream/stream.js -->
<g id="node12" class="node">
<title>../../node_modules/@thi.ng/rstream/stream.js</title>
<g id="a_node12"><a xlink:href="../../node_modules/@thi.ng/rstream/stream.js" xlink:title="stream.js">
<path fill="#c40b0a" fill-opacity="0.101961" stroke="black" d="M279,-276C279,-276 207,-276 207,-276 204,-276 201,-273 201,-270 201,-270 201,-264 201,-264 201,-261 204,-258 207,-258 207,-258 279,-258 279,-258 282,-258 285,-261 285,-264 285,-264 285,-270 285,-270 285,-273 282,-276 279,-276"/>
<text text-anchor="start" x="209" y="-264.8" font-family="Helvetica,sans-Serif" font-size="9.00" fill="#c40b0a">stream.js</text>
</a>
</g>
</g>
<!-- ../../node_modules/@thi.ng/rstream/sync.js -->
<g id="node13" class="node">
<title>../../node_modules/@thi.ng/rstream/sync.js</title>
<g id="a_node13"><a xlink:href="../../node_modules/@thi.ng/rstream/sync.js" xlink:title="sync.js">
<path fill="#c40b0a" fill-opacity="0.101961" stroke="black" d="M271.5,-246C271.5,-246 214.5,-246 214.5,-246 211.5,-246 208.5,-243 208.5,-240 208.5,-240 208.5,-234 208.5,-234 208.5,-231 211.5,-228 214.5,-228 214.5,-228 271.5,-228 271.5,-228 274.5,-228 277.5,-231 277.5,-234 277.5,-234 277.5,-240 277.5,-240 277.5,-243 274.5,-246 271.5,-246"/>
<text text-anchor="start" x="216.5" y="-234.8" font-family="Helvetica,sans-Serif" font-size="9.00" fill="#c40b0a">sync.js</text>
</a>
</g>
</g>
<!-- ../../node_modules/@thi.ng/transducers/choices.js -->
<g id="node14" class="node">
<title>../../node_modules/@thi.ng/transducers/choices.js</title>
<g id="a_node14"><a xlink:href="../../node_modules/@thi.ng/transducers/choices.js" xlink:title="choices.js">
<path fill="#c40b0a" fill-opacity="0.101961" stroke="black" d="M283,-186C283,-186 203,-186 203,-186 200,-186 197,-183 197,-180 197,-180 197,-174 197,-174 197,-171 200,-168 203,-168 203,-168 283,-168 283,-168 286,-168 289,-171 289,-174 289,-174 289,-180 289,-180 289,-183 286,-186 283,-186"/>
<text text-anchor="start" x="205" y="-174.8" font-family="Helvetica,sans-Serif" font-size="9.00" fill="#c40b0a">choices.js</text>
</a>
</g>
</g>
<!-- ../../node_modules/@thi.ng/transducers/map.js -->
<g id="node15" class="node">
<title>../../node_modules/@thi.ng/transducers/map.js</title>
<g id="a_node15"><a xlink:href="../../node_modules/@thi.ng/transducers/map.js" xlink:title="map.js">
<path fill="#c40b0a" fill-opacity="0.101961" stroke="black" d="M268,-156C268,-156 218,-156 218,-156 215,-156 212,-153 212,-150 212,-150 212,-144 212,-144 212,-141 215,-138 218,-138 218,-138 268,-138 268,-138 271,-138 274,-141 274,-144 274,-144 274,-150 274,-150 274,-153 271,-156 268,-156"/>
<text text-anchor="start" x="220" y="-144.8" font-family="Helvetica,sans-Serif" font-size="9.00" fill="#c40b0a">map.js</text>
</a>
</g>
</g>
<!-- ../../node_modules/@thi.ng/transducers/take.js -->
<g id="node16" class="node">
<title>../../node_modules/@thi.ng/transducers/take.js</title>
<g id="a_node16"><a xlink:href="../../node_modules/@thi.ng/transducers/take.js" xlink:title="take.js">
<path fill="#c40b0a" fill-opacity="0.101961" stroke="black" d="M271.5,-126C271.5,-126 214.5,-126 214.5,-126 211.5,-126 208.5,-123 208.5,-120 208.5,-120 208.5,-114 208.5,-114 208.5,-111 211.5,-108 214.5,-108 214.5,-108 271.5,-108 271.5,-108 274.5,-108 277.5,-111 277.5,-114 277.5,-114 277.5,-120 277.5,-120 277.5,-123 274.5,-126 271.5,-126"/>
<text text-anchor="start" x="216.5" y="-114.8" font-family="Helvetica,sans-Serif" font-size="9.00" fill="#c40b0a">take.js</text>
</a>
</g>
</g>
<!-- ../../node_modules/twind/twind.cjs -->
<g id="node17" class="node">
<title>../../node_modules/twind/twind.cjs</title>
<g id="a_node17"><a xlink:href="../../node_modules/twind/twind.cjs" xlink:title="twind.cjs">
<path fill="#c40b0a" fill-opacity="0.101961" stroke="black" d="M279,-58C279,-58 207,-58 207,-58 204,-58 201,-55 201,-52 201,-52 201,-46 201,-46 201,-43 204,-40 207,-40 207,-40 279,-40 279,-40 282,-40 285,-43 285,-46 285,-46 285,-52 285,-52 285,-55 282,-58 279,-58"/>
<text text-anchor="start" x="209" y="-46.8" font-family="Helvetica,sans-Serif" font-size="9.00" fill="#c40b0a">twind.cjs</text>
</a>
</g>
</g>
<!-- src/index.ts -->
<g id="node18" class="node">
<title>src/index.ts</title>
<g id="a_node18"><a xlink:href="src/index.ts" xlink:title="index.ts">
<path fill="#ddfeff" stroke="black" d="M105.5,-366C105.5,-366 40.5,-366 40.5,-366 37.5,-366 34.5,-363 34.5,-360 34.5,-360 34.5,-354 34.5,-354 34.5,-351 37.5,-348 40.5,-348 40.5,-348 105.5,-348 105.5,-348 108.5,-348 111.5,-351 111.5,-354 111.5,-354 111.5,-360 111.5,-360 111.5,-363 108.5,-366 105.5,-366"/>
<text text-anchor="start" x="42.5" y="-354.8" font-family="Helvetica,sans-Serif" font-size="9.00">index.ts</text>
</a>
</g>
</g>
<!-- src/index.ts&#45;&gt;../../node_modules/@thi.ng/checks/is&#45;string.js -->
<g id="edge1" class="edge">
<title>src/index.ts&#45;&gt;../../node_modules/@thi.ng/checks/is&#45;string.js</title>
<path fill="none" stroke="#000000" stroke-opacity="0.200000" d="M74.65,-366.17C78.3,-415.22 97.9,-646.16 146,-695 155.97,-705.13 169.59,-711 183.44,-714.31"/>
<polygon fill="#000000" fill-opacity="0.200000" stroke="#000000" stroke-opacity="0.200000" points="183.07,-716.38 189.37,-715.57 183.94,-712.27 183.07,-716.38"/>
</g>
<!-- src/index.ts&#45;&gt;../../node_modules/@thi.ng/compose/delayed.js -->
<g id="edge2" class="edge">
<title>src/index.ts&#45;&gt;../../node_modules/@thi.ng/compose/delayed.js</title>
<path fill="none" stroke="#000000" stroke-opacity="0.200000" d="M75.11,-366.23C80.53,-409.96 105.7,-595.81 146,-635 157.8,-646.47 174.29,-652.42 190.28,-655.39"/>
<polygon fill="#000000" fill-opacity="0.200000" stroke="#000000" stroke-opacity="0.200000" points="190.35,-657.53 196.61,-656.42 191.02,-653.38 190.35,-657.53"/>
</g>
<!-- src/index.ts&#45;&gt;../../node_modules/@thi.ng/hiccup&#45;html/index.js -->
<g id="edge3" class="edge">
<title>src/index.ts&#45;&gt;../../node_modules/@thi.ng/hiccup&#45;html/index.js</title>
<path fill="none" stroke="#000000" stroke-opacity="0.200000" d="M78.03,-366.28C87.1,-385.98 111.06,-432.05 146,-455 161.4,-465.12 180.85,-470.61 198.2,-473.59"/>
<polygon fill="#000000" fill-opacity="0.200000" stroke="#000000" stroke-opacity="0.200000" points="198.24,-475.72 204.49,-474.58 198.89,-471.57 198.24,-475.72"/>
</g>
<!-- src/index.ts&#45;&gt;../../node_modules/@thi.ng/rdom/compile.js -->
<g id="edge4" class="edge">
<title>src/index.ts&#45;&gt;../../node_modules/@thi.ng/rdom/compile.js</title>
<path fill="none" stroke="#000000" stroke-opacity="0.200000" d="M73.8,-366.08C73.59,-400.45 77.77,-523.59 146,-582 158.22,-592.46 174.65,-597.21 190.46,-599.05"/>
<polygon fill="#000000" fill-opacity="0.200000" stroke="#000000" stroke-opacity="0.200000" points="190.55,-601.17 196.72,-599.64 190.94,-596.99 190.55,-601.17"/>
</g>
<!-- src/index.ts&#45;&gt;../../node_modules/@thi.ng/rdom/list.js -->
<g id="edge5" class="edge">
<title>src/index.ts&#45;&gt;../../node_modules/@thi.ng/rdom/list.js</title>
<path fill="none" stroke="#000000" stroke-opacity="0.200000" d="M74.31,-366.18C75.89,-397.75 85.69,-502.62 146,-552 161.48,-564.67 183.22,-568.82 202.1,-569.63"/>
<polygon fill="#000000" fill-opacity="0.200000" stroke="#000000" stroke-opacity="0.200000" points="202.33,-571.73 208.38,-569.78 202.43,-567.54 202.33,-571.73"/>
</g>
<!-- src/index.ts&#45;&gt;../../node_modules/@thi.ng/rdom/replace.js -->
<g id="edge6" class="edge">
<title>src/index.ts&#45;&gt;../../node_modules/@thi.ng/rdom/replace.js</title>
<path fill="none" stroke="#000000" stroke-opacity="0.200000" d="M75.32,-366.2C79.76,-393.53 96.71,-474.8 146,-515 158.52,-525.21 174.87,-530.88 190.52,-533.97"/>
<polygon fill="#000000" fill-opacity="0.200000" stroke="#000000" stroke-opacity="0.200000" points="190.43,-536.09 196.7,-535.07 191.16,-531.95 190.43,-536.09"/>
</g>
<!-- src/index.ts&#45;&gt;../../node_modules/@thi.ng/rstream/api.js -->
<g id="edge7" class="edge">
<title>src/index.ts&#45;&gt;../../node_modules/@thi.ng/rstream/api.js</title>
<path fill="none" stroke="#000000" stroke-opacity="0.200000" d="M85.45,-366.23C99.04,-376.67 122.8,-393.35 146,-402 165.03,-409.09 187.39,-412.83 205.74,-414.8"/>
<polygon fill="#000000" fill-opacity="0.200000" stroke="#000000" stroke-opacity="0.200000" points="205.63,-416.9 211.8,-415.41 206.04,-412.72 205.63,-416.9"/>
</g>
<!-- src/index.ts&#45;&gt;../../node_modules/@thi.ng/rstream/event.js -->
<g id="edge8" class="edge">
<title>src/index.ts&#45;&gt;../../node_modules/@thi.ng/rstream/event.js</title>
<path fill="none" stroke="#000000" stroke-opacity="0.200000" d="M111.67,-365.22C122.71,-367.53 134.82,-369.96 146,-372 162.85,-375.07 181.43,-378.06 197.72,-380.56"/>
<polygon fill="#000000" fill-opacity="0.200000" stroke="#000000" stroke-opacity="0.200000" points="197.83,-382.7 204.08,-381.53 198.47,-378.55 197.83,-382.7"/>
</g>
<!-- src/index.ts&#45;&gt;../../node_modules/@thi.ng/rstream/interval.js -->
<g id="edge9" class="edge">
<title>src/index.ts&#45;&gt;../../node_modules/@thi.ng/rstream/interval.js</title>
<path fill="none" stroke="#000000" stroke-opacity="0.200000" d="M111.7,-357C133.91,-357 162.39,-357 187.06,-357"/>
<polygon fill="#000000" fill-opacity="0.200000" stroke="#000000" stroke-opacity="0.200000" points="187.25,-359.1 193.25,-357 187.25,-354.9 187.25,-359.1"/>
</g>
<!-- src/index.ts&#45;&gt;../../node_modules/@thi.ng/rstream/iterable.js -->
<g id="edge10" class="edge">
<title>src/index.ts&#45;&gt;../../node_modules/@thi.ng/rstream/iterable.js</title>
<path fill="none" stroke="#000000" stroke-opacity="0.200000" d="M111.67,-348.78C122.71,-346.47 134.82,-344.04 146,-342 159.24,-339.59 173.55,-337.22 186.98,-335.11"/>
<polygon fill="#000000" fill-opacity="0.200000" stroke="#000000" stroke-opacity="0.200000" points="187.48,-337.16 193.08,-334.16 186.83,-333.01 187.48,-337.16"/>
</g>
<!-- src/index.ts&#45;&gt;../../node_modules/@thi.ng/rstream/metastream.js -->
<g id="edge11" class="edge">
<title>src/index.ts&#45;&gt;../../node_modules/@thi.ng/rstream/metastream.js</title>
<path fill="none" stroke="#000000" stroke-opacity="0.200000" d="M111.53,-355.06C121.2,-352.86 130.87,-348.91 138,-342 147.9,-332.39 135.74,-321.23 146,-312 155.38,-303.56 167.46,-298.78 179.88,-296.23"/>
<polygon fill="#000000" fill-opacity="0.200000" stroke="#000000" stroke-opacity="0.200000" points="180.45,-298.26 185.99,-295.15 179.72,-294.12 180.45,-298.26"/>
</g>
<!-- src/index.ts&#45;&gt;../../node_modules/@thi.ng/rstream/stream.js -->
<g id="edge12" class="edge">
<title>src/index.ts&#45;&gt;../../node_modules/@thi.ng/rstream/stream.js</title>
<path fill="none" stroke="#000000" stroke-opacity="0.200000" d="M111.8,-355.71C121.58,-353.54 131.25,-349.44 138,-342 156.07,-322.07 127.19,-301.24 146,-282 158.39,-269.32 176.79,-264.53 194.17,-263.28"/>
<polygon fill="#000000" fill-opacity="0.200000" stroke="#000000" stroke-opacity="0.200000" points="194.63,-265.36 200.52,-262.97 194.42,-261.16 194.63,-265.36"/>
</g>
<!-- src/index.ts&#45;&gt;../../node_modules/@thi.ng/rstream/sync.js -->
<g id="edge13" class="edge">
<title>src/index.ts&#45;&gt;../../node_modules/@thi.ng/rstream/sync.js</title>
<path fill="none" stroke="#000000" stroke-opacity="0.200000" d="M111.67,-355.97C121.58,-353.82 131.34,-349.67 138,-342 151.16,-326.83 132.28,-266.66 146,-252 160.1,-236.93 182.65,-232.84 202.35,-232.67"/>
<polygon fill="#000000" fill-opacity="0.200000" stroke="#000000" stroke-opacity="0.200000" points="202.34,-234.77 208.36,-232.74 202.39,-230.57 202.34,-234.77"/>
</g>
<!-- src/index.ts&#45;&gt;../../node_modules/@thi.ng/transducers/choices.js -->
<g id="edge14" class="edge">
<title>src/index.ts&#45;&gt;../../node_modules/@thi.ng/transducers/choices.js</title>
<path fill="none" stroke="#000000" stroke-opacity="0.200000" d="M111.8,-356.08C121.71,-353.93 131.44,-349.75 138,-342 155.98,-320.75 129.83,-239.65 146,-217 156.65,-202.08 173.95,-192.7 190.95,-186.82"/>
<polygon fill="#000000" fill-opacity="0.200000" stroke="#000000" stroke-opacity="0.200000" points="191.64,-188.8 196.7,-184.96 190.34,-184.81 191.64,-188.8"/>
</g>
<!-- src/index.ts&#45;&gt;../../node_modules/@thi.ng/transducers/map.js -->
<g id="edge15" class="edge">
<title>src/index.ts&#45;&gt;../../node_modules/@thi.ng/transducers/map.js</title>
<path fill="none" stroke="#000000" stroke-opacity="0.200000" d="M111.56,-356.23C121.59,-354.11 131.44,-349.91 138,-342 150.78,-326.59 132.65,-176.92 146,-162 160.58,-145.71 185,-142.07 205.56,-142.45"/>
<polygon fill="#000000" fill-opacity="0.200000" stroke="#000000" stroke-opacity="0.200000" points="205.73,-144.55 211.8,-142.68 205.89,-140.36 205.73,-144.55"/>
</g>
<!-- src/index.ts&#45;&gt;../../node_modules/@thi.ng/transducers/take.js -->
<g id="edge16" class="edge">
<title>src/index.ts&#45;&gt;../../node_modules/@thi.ng/transducers/take.js</title>
<path fill="none" stroke="#000000" stroke-opacity="0.200000" d="M111.59,-356.26C121.62,-354.13 131.47,-349.93 138,-342 152.85,-323.98 130.48,-149.45 146,-132 159.72,-116.58 182.25,-112.47 202.04,-112.39"/>
<polygon fill="#000000" fill-opacity="0.200000" stroke="#000000" stroke-opacity="0.200000" points="202.04,-114.49 208.08,-112.48 202.11,-110.29 202.04,-114.49"/>
</g>
<!-- src/index.ts&#45;&gt;../../node_modules/twind/twind.cjs -->
<g id="edge17" class="edge">
<title>src/index.ts&#45;&gt;../../node_modules/twind/twind.cjs</title>
<path fill="none" stroke="#000000" stroke-opacity="0.200000" d="M111.62,-356.28C121.65,-354.16 131.49,-349.94 138,-342 155.27,-320.94 131.3,-119.93 146,-97 157.57,-78.94 178.14,-67.42 197.28,-60.21"/>
<polygon fill="#000000" fill-opacity="0.200000" stroke="#000000" stroke-opacity="0.200000" points="198.22,-62.1 203.16,-58.1 196.81,-58.15 198.22,-62.1"/>
</g>
<!-- src/vite&#45;env.d.ts -->
<g id="node19" class="node">
<title>src/vite&#45;env.d.ts</title>
<g id="a_node19"><a xlink:href="src/vite-env.d.ts" xlink:title="vite&#45;env.d.ts">
<path fill="#ccffcc" stroke="black" d="M124,-336C124,-336 22,-336 22,-336 19,-336 16,-333 16,-330 16,-330 16,-324 16,-324 16,-321 19,-318 22,-318 22,-318 124,-318 124,-318 127,-318 130,-321 130,-324 130,-324 130,-330 130,-330 130,-333 127,-336 124,-336"/>
<text text-anchor="start" x="24" y="-324.8" font-family="Helvetica,sans-Serif" font-size="9.00">vite&#45;env.d.ts</text>
</a>
</g>
</g>
</g>
</svg>
