<?xml version="1.0" encoding="UTF-8" standalone="no"?>
<!DOCTYPE svg PUBLIC "-//W3C//DTD SVG 1.1//EN"
 "http://www.w3.org/Graphics/SVG/1.1/DTD/svg11.dtd">
<!-- Generated by graphviz version 2.50.0 (20220206.1658)
 -->
<!-- Title: dependency&#45;cruiser output Pages: 1 -->
<svg width="265pt" height="893pt"
 viewBox="0.00 0.00 265.03 893.00" xmlns="http://www.w3.org/2000/svg" xmlns:xlink="http://www.w3.org/1999/xlink">
<g id="graph0" class="graph" transform="scale(1 1) rotate(0) translate(4 889)">
<title>dependency&#45;cruiser output</title>
<polygon fill="white" stroke="transparent" points="-4,4 -4,-889 261.03,-889 261.03,4 -4,4"/>
<g id="clust1" class="cluster">
<title>cluster_..</title>
<path fill="#ffffff" stroke="black" stroke-width="2" d="M108.52,-8C108.52,-8 237.03,-8 237.03,-8 243.03,-8 249.03,-14 249.03,-20 249.03,-20 249.03,-865 249.03,-865 249.03,-871 243.03,-877 237.03,-877 237.03,-877 108.52,-877 108.52,-877 102.52,-877 96.52,-871 96.52,-865 96.52,-865 96.52,-20 96.52,-20 96.52,-14 102.52,-8 108.52,-8"/>
<text text-anchor="middle" x="172.78" y="-864.9" font-family="Helvetica,sans-Serif" font-weight="bold" font-size="9.00">..</text>
</g>
<g id="clust2" class="cluster">
<title>cluster_../..</title>
<path fill="#ffffff" stroke="black" stroke-width="2" d="M116.52,-16C116.52,-16 229.03,-16 229.03,-16 235.03,-16 241.03,-22 241.03,-28 241.03,-28 241.03,-838 241.03,-838 241.03,-844 235.03,-850 229.03,-850 229.03,-850 116.52,-850 116.52,-850 110.52,-850 104.52,-844 104.52,-838 104.52,-838 104.52,-28 104.52,-28 104.52,-22 110.52,-16 116.52,-16"/>
<text text-anchor="middle" x="172.78" y="-837.9" font-family="Helvetica,sans-Serif" font-weight="bold" font-size="9.00">..</text>
</g>
<g id="clust3" class="cluster">
<title>cluster_../../node_modules</title>
<path fill="#ffffff" stroke="black" stroke-width="2" d="M124.52,-24C124.52,-24 221.03,-24 221.03,-24 227.03,-24 233.03,-30 233.03,-36 233.03,-36 233.03,-811 233.03,-811 233.03,-817 227.03,-823 221.03,-823 221.03,-823 124.52,-823 124.52,-823 118.52,-823 112.52,-817 112.52,-811 112.52,-811 112.52,-36 112.52,-36 112.52,-30 118.52,-24 124.52,-24"/>
<text text-anchor="middle" x="172.78" y="-810.9" font-family="Helvetica,sans-Serif" font-weight="bold" font-size="9.00">node_modules</text>
</g>
<g id="clust4" class="cluster">
<title>cluster_../../node_modules/@thi.ng</title>
<path fill="#ffffff" stroke="black" stroke-width="2" d="M132.52,-93C132.52,-93 213.03,-93 213.03,-93 219.03,-93 225.03,-99 225.03,-105 225.03,-105 225.03,-784 225.03,-784 225.03,-790 219.03,-796 213.03,-796 213.03,-796 132.52,-796 132.52,-796 126.52,-796 120.52,-790 120.52,-784 120.52,-784 120.52,-105 120.52,-105 120.52,-99 126.52,-93 132.52,-93"/>
<text text-anchor="middle" x="172.78" y="-783.9" font-family="Helvetica,sans-Serif" font-weight="bold" font-size="9.00">@thi.ng</text>
</g>
<g id="clust5" class="cluster">
<title>cluster_../../node_modules/@thi.ng/checks</title>
<path fill="#ffffff" stroke="black" stroke-width="2" d="M148.52,-716C148.52,-716 197.03,-716 197.03,-716 203.03,-716 209.03,-722 209.03,-728 209.03,-728 209.03,-757 209.03,-757 209.03,-763 203.03,-769 197.03,-769 197.03,-769 148.52,-769 148.52,-769 142.52,-769 136.52,-763 136.52,-757 136.52,-757 136.52,-728 136.52,-728 136.52,-722 142.52,-716 148.52,-716"/>
<text text-anchor="middle" x="172.78" y="-756.9" font-family="Helvetica,sans-Serif" font-weight="bold" font-size="9.00">checks</text>
</g>
<g id="clust6" class="cluster">
<title>cluster_../../node_modules/@thi.ng/compose</title>
<path fill="#ffffff" stroke="black" stroke-width="2" d="M148.51,-655C148.51,-655 197.04,-655 197.04,-655 203.04,-655 209.04,-661 209.04,-667 209.04,-667 209.04,-696 209.04,-696 209.04,-702 203.04,-708 197.04,-708 197.04,-708 148.51,-708 148.51,-708 142.51,-708 136.51,-702 136.51,-696 136.51,-696 136.51,-667 136.51,-667 136.51,-661 142.51,-655 148.51,-655"/>
<text text-anchor="middle" x="172.78" y="-695.9" font-family="Helvetica,sans-Serif" font-weight="bold" font-size="9.00">compose</text>
</g>
<g id="clust7" class="cluster">
<title>cluster_../../node_modules/@thi.ng/hiccup&#45;html</title>
<path fill="#ffffff" stroke="black" stroke-width="2" d="M149.78,-594C149.78,-594 195.78,-594 195.78,-594 201.78,-594 207.78,-600 207.78,-606 207.78,-606 207.78,-635 207.78,-635 207.78,-641 201.78,-647 195.78,-647 195.78,-647 149.78,-647 149.78,-647 143.78,-647 137.78,-641 137.78,-635 137.78,-635 137.78,-606 137.78,-606 137.78,-600 143.78,-594 149.78,-594"/>
<text text-anchor="middle" x="172.78" y="-634.9" font-family="Helvetica,sans-Serif" font-weight="bold" font-size="9.00">hiccup&#45;html</text>
</g>
<g id="clust8" class="cluster">
<title>cluster_../../node_modules/@thi.ng/rdom</title>
<path fill="#ffffff" stroke="black" stroke-width="2" d="M148.77,-471C148.77,-471 196.78,-471 196.78,-471 202.78,-471 208.78,-477 208.78,-483 208.78,-483 208.78,-574 208.78,-574 208.78,-580 202.78,-586 196.78,-586 196.78,-586 148.77,-586 148.77,-586 142.77,-586 136.77,-580 136.77,-574 136.77,-574 136.77,-483 136.77,-483 136.77,-477 142.77,-471 148.77,-471"/>
<text text-anchor="middle" x="172.78" y="-573.9" font-family="Helvetica,sans-Serif" font-weight="bold" font-size="9.00">rdom</text>
</g>
<g id="clust9" class="cluster">
<title>cluster_../../node_modules/@thi.ng/rstream</title>
<path fill="#ffffff" stroke="black" stroke-width="2" d="M140.52,-224C140.52,-224 205.03,-224 205.03,-224 211.03,-224 217.03,-230 217.03,-236 217.03,-236 217.03,-451 217.03,-451 217.03,-457 211.03,-463 205.03,-463 205.03,-463 140.52,-463 140.52,-463 134.52,-463 128.52,-457 128.52,-451 128.52,-451 128.52,-236 128.52,-236 128.52,-230 134.52,-224 140.52,-224"/>
<text text-anchor="middle" x="172.78" y="-450.9" font-family="Helvetica,sans-Serif" font-weight="bold" font-size="9.00">rstream</text>
</g>
<g id="clust10" class="cluster">
<title>cluster_../../node_modules/@thi.ng/transducers</title>
<path fill="#ffffff" stroke="black" stroke-width="2" d="M149.02,-101C149.02,-101 196.53,-101 196.53,-101 202.53,-101 208.53,-107 208.53,-113 208.53,-113 208.53,-204 208.53,-204 208.53,-210 202.53,-216 196.53,-216 196.53,-216 149.02,-216 149.02,-216 143.02,-216 137.02,-210 137.02,-204 137.02,-204 137.02,-113 137.02,-113 137.02,-107 143.02,-101 149.02,-101"/>
<text text-anchor="middle" x="172.78" y="-203.9" font-family="Helvetica,sans-Serif" font-weight="bold" font-size="9.00">transducers</text>
</g>
<g id="clust11" class="cluster">
<title>cluster_../../node_modules/twind</title>
<path fill="#ffffff" stroke="black" stroke-width="2" d="M149.78,-32C149.78,-32 195.78,-32 195.78,-32 201.78,-32 207.78,-38 207.78,-44 207.78,-44 207.78,-73 207.78,-73 207.78,-79 201.78,-85 195.78,-85 195.78,-85 149.78,-85 149.78,-85 143.78,-85 137.78,-79 137.78,-73 137.78,-73 137.78,-44 137.78,-44 137.78,-38 143.78,-32 149.78,-32"/>
<text text-anchor="middle" x="172.78" y="-72.9" font-family="Helvetica,sans-Serif" font-weight="bold" font-size="9.00">twind</text>
</g>
<g id="clust12" class="cluster">
<title>cluster_src</title>
<path fill="#ffffff" stroke="black" stroke-width="2" d="M20,-317C20,-317 76.52,-317 76.52,-317 82.52,-317 88.52,-323 88.52,-329 88.52,-329 88.52,-389 88.52,-389 88.52,-395 82.52,-401 76.52,-401 76.52,-401 20,-401 20,-401 14,-401 8,-395 8,-389 8,-389 8,-329 8,-329 8,-323 14,-317 20,-317"/>
<text text-anchor="middle" x="48.26" y="-388.9" font-family="Helvetica,sans-Serif" font-weight="bold" font-size="9.00">src</text>
</g>
<!-- ../../node_modules/@thi.ng/checks/is&#45;string.js -->
<g id="node1" class="node">
<title>../../node_modules/@thi.ng/checks/is&#45;string.js</title>
<g id="a_node1"><a xlink:href="../../node_modules/@thi.ng/checks/is-string.js" xlink:title="is&#45;string.js">
<path fill="#c40b0a" fill-opacity="0.101961" stroke="black" d="M194.58,-742.3C194.58,-742.3 150.97,-742.3 150.97,-742.3 147.87,-742.3 144.77,-739.2 144.77,-736.1 144.77,-736.1 144.77,-729.9 144.77,-729.9 144.77,-726.8 147.87,-723.7 150.97,-723.7 150.97,-723.7 194.58,-723.7 194.58,-723.7 197.68,-723.7 200.78,-726.8 200.78,-729.9 200.78,-729.9 200.78,-736.1 200.78,-736.1 200.78,-739.2 197.68,-742.3 194.58,-742.3"/>
<text text-anchor="start" x="152.52" y="-730.3" font-family="Helvetica,sans-Serif" font-size="9.00" fill="#c40b0a">is&#45;string.js</text>
</a>
</g>
</g>
<!-- ../../node_modules/@thi.ng/compose/delayed.js -->
<g id="node2" class="node">
<title>../../node_modules/@thi.ng/compose/delayed.js</title>
<g id="a_node2"><a xlink:href="../../node_modules/@thi.ng/compose/delayed.js" xlink:title="delayed.js">
<path fill="#c40b0a" fill-opacity="0.101961" stroke="black" d="M194.6,-681.3C194.6,-681.3 150.95,-681.3 150.95,-681.3 147.85,-681.3 144.75,-678.2 144.75,-675.1 144.75,-675.1 144.75,-668.9 144.75,-668.9 144.75,-665.8 147.85,-662.7 150.95,-662.7 150.95,-662.7 194.6,-662.7 194.6,-662.7 197.7,-662.7 200.81,-665.8 200.81,-668.9 200.81,-668.9 200.81,-675.1 200.81,-675.1 200.81,-678.2 197.7,-681.3 194.6,-681.3"/>
<text text-anchor="start" x="152.51" y="-669.3" font-family="Helvetica,sans-Serif" font-size="9.00" fill="#c40b0a">delayed.js</text>
</a>
</g>
</g>
<!-- ../../node_modules/@thi.ng/hiccup&#45;html/index.js -->
<g id="node3" class="node">
<title>../../node_modules/@thi.ng/hiccup&#45;html/index.js</title>
<g id="a_node3"><a xlink:href="../../node_modules/@thi.ng/hiccup-html/index.js" xlink:title="index.js">
<path fill="#c40b0a" fill-opacity="0.101961" stroke="black" d="M193.58,-620.3C193.58,-620.3 151.98,-620.3 151.98,-620.3 148.88,-620.3 145.78,-617.2 145.78,-614.1 145.78,-614.1 145.78,-607.9 145.78,-607.9 145.78,-604.8 148.88,-601.7 151.98,-601.7 151.98,-601.7 193.58,-601.7 193.58,-601.7 196.68,-601.7 199.78,-604.8 199.78,-607.9 199.78,-607.9 199.78,-614.1 199.78,-614.1 199.78,-617.2 196.68,-620.3 193.58,-620.3"/>
<text text-anchor="start" x="157.52" y="-608.3" font-family="Helvetica,sans-Serif" font-size="9.00" fill="#c40b0a">index.js</text>
</a>
</g>
</g>
<!-- ../../node_modules/@thi.ng/rdom/compile.js -->
<g id="node4" class="node">
<title>../../node_modules/@thi.ng/rdom/compile.js</title>
<g id="a_node4"><a xlink:href="../../node_modules/@thi.ng/rdom/compile.js" xlink:title="compile.js">
<path fill="#c40b0a" fill-opacity="0.101961" stroke="black" d="M194.59,-559.3C194.59,-559.3 150.97,-559.3 150.97,-559.3 147.86,-559.3 144.76,-556.2 144.76,-553.1 144.76,-553.1 144.76,-546.9 144.76,-546.9 144.76,-543.8 147.86,-540.7 150.97,-540.7 150.97,-540.7 194.59,-540.7 194.59,-540.7 197.69,-540.7 200.79,-543.8 200.79,-546.9 200.79,-546.9 200.79,-553.1 200.79,-553.1 200.79,-556.2 197.69,-559.3 194.59,-559.3"/>
<text text-anchor="start" x="152.77" y="-547.3" font-family="Helvetica,sans-Serif" font-size="9.00" fill="#c40b0a">compile.js</text>
</a>
</g>
</g>
<!-- ../../node_modules/@thi.ng/rdom/list.js -->
<g id="node5" class="node">
<title>../../node_modules/@thi.ng/rdom/list.js</title>
<g id="a_node5"><a xlink:href="../../node_modules/@thi.ng/rdom/list.js" xlink:title="list.js">
<path fill="#c40b0a" fill-opacity="0.101961" stroke="black" d="M193.58,-528.3C193.58,-528.3 151.98,-528.3 151.98,-528.3 148.88,-528.3 145.78,-525.2 145.78,-522.1 145.78,-522.1 145.78,-515.9 145.78,-515.9 145.78,-512.8 148.88,-509.7 151.98,-509.7 151.98,-509.7 193.58,-509.7 193.58,-509.7 196.68,-509.7 199.78,-512.8 199.78,-515.9 199.78,-515.9 199.78,-522.1 199.78,-522.1 199.78,-525.2 196.68,-528.3 193.58,-528.3"/>
<text text-anchor="start" x="162.78" y="-516.3" font-family="Helvetica,sans-Serif" font-size="9.00" fill="#c40b0a">list.js</text>
</a>
</g>
</g>
<!-- ../../node_modules/@thi.ng/rdom/replace.js -->
<g id="node6" class="node">
<title>../../node_modules/@thi.ng/rdom/replace.js</title>
<g id="a_node6"><a xlink:href="../../node_modules/@thi.ng/rdom/replace.js" xlink:title="replace.js">
<path fill="#c40b0a" fill-opacity="0.101961" stroke="black" d="M193.6,-497.3C193.6,-497.3 151.96,-497.3 151.96,-497.3 148.86,-497.3 145.76,-494.2 145.76,-491.1 145.76,-491.1 145.76,-484.9 145.76,-484.9 145.76,-481.8 148.86,-478.7 151.96,-478.7 151.96,-478.7 193.6,-478.7 193.6,-478.7 196.7,-478.7 199.8,-481.8 199.8,-484.9 199.8,-484.9 199.8,-491.1 199.8,-491.1 199.8,-494.2 196.7,-497.3 193.6,-497.3"/>
<text text-anchor="start" x="153.52" y="-485.3" font-family="Helvetica,sans-Serif" font-size="9.00" fill="#c40b0a">replace.js</text>
</a>
</g>
</g>
<!-- ../../node_modules/@thi.ng/rstream/api.js -->
<g id="node7" class="node">
<title>../../node_modules/@thi.ng/rstream/api.js</title>
<g id="a_node7"><a xlink:href="../../node_modules/@thi.ng/rstream/api.js" xlink:title="api.js">
<path fill="#c40b0a" fill-opacity="0.101961" stroke="black" d="M193.58,-436.3C193.58,-436.3 151.98,-436.3 151.98,-436.3 148.88,-436.3 145.78,-433.2 145.78,-430.1 145.78,-430.1 145.78,-423.9 145.78,-423.9 145.78,-420.8 148.88,-417.7 151.98,-417.7 151.98,-417.7 193.58,-417.7 193.58,-417.7 196.68,-417.7 199.78,-420.8 199.78,-423.9 199.78,-423.9 199.78,-430.1 199.78,-430.1 199.78,-433.2 196.68,-436.3 193.58,-436.3"/>
<text text-anchor="start" x="162.27" y="-424.3" font-family="Helvetica,sans-Serif" font-size="9.00" fill="#c40b0a">api.js</text>
</a>
</g>
</g>
<!-- ../../node_modules/@thi.ng/rstream/event.js -->
<g id="node8" class="node">
<title>../../node_modules/@thi.ng/rstream/event.js</title>
<g id="a_node8"><a xlink:href="../../node_modules/@thi.ng/rstream/event.js" xlink:title="event.js">
<path fill="#c40b0a" fill-opacity="0.101961" stroke="black" d="M193.58,-405.3C193.58,-405.3 151.98,-405.3 151.98,-405.3 148.88,-405.3 145.78,-402.2 145.78,-399.1 145.78,-399.1 145.78,-392.9 145.78,-392.9 145.78,-389.8 148.88,-386.7 151.98,-386.7 151.98,-386.7 193.58,-386.7 193.58,-386.7 196.68,-386.7 199.78,-389.8 199.78,-392.9 199.78,-392.9 199.78,-399.1 199.78,-399.1 199.78,-402.2 196.68,-405.3 193.58,-405.3"/>
<text text-anchor="start" x="157.27" y="-393.3" font-family="Helvetica,sans-Serif" font-size="9.00" fill="#c40b0a">event.js</text>
</a>
</g>
</g>
<!-- ../../node_modules/@thi.ng/rstream/interval.js -->
<g id="node9" class="node">
<title>../../node_modules/@thi.ng/rstream/interval.js</title>
<g id="a_node9"><a xlink:href="../../node_modules/@thi.ng/rstream/interval.js" xlink:title="interval.js">
<path fill="#c40b0a" fill-opacity="0.101961" stroke="black" d="M193.59,-374.3C193.59,-374.3 151.96,-374.3 151.96,-374.3 148.86,-374.3 145.76,-371.2 145.76,-368.1 145.76,-368.1 145.76,-361.9 145.76,-361.9 145.76,-358.8 148.86,-355.7 151.96,-355.7 151.96,-355.7 193.59,-355.7 193.59,-355.7 196.69,-355.7 199.79,-358.8 199.79,-361.9 199.79,-361.9 199.79,-368.1 199.79,-368.1 199.79,-371.2 196.69,-374.3 193.59,-374.3"/>
<text text-anchor="start" x="153.77" y="-362.3" font-family="Helvetica,sans-Serif" font-size="9.00" fill="#c40b0a">interval.js</text>
</a>
</g>
</g>
<!-- ../../node_modules/@thi.ng/rstream/iterable.js -->
<g id="node10" class="node">
<title>../../node_modules/@thi.ng/rstream/iterable.js</title>
<g id="a_node10"><a xlink:href="../../node_modules/@thi.ng/rstream/iterable.js" xlink:title="iterable.js">
<path fill="#c40b0a" fill-opacity="0.101961" stroke="black" d="M193.6,-343.3C193.6,-343.3 151.96,-343.3 151.96,-343.3 148.86,-343.3 145.76,-340.2 145.76,-337.1 145.76,-337.1 145.76,-330.9 145.76,-330.9 145.76,-327.8 148.86,-324.7 151.96,-324.7 151.96,-324.7 193.6,-324.7 193.6,-324.7 196.7,-324.7 199.8,-327.8 199.8,-330.9 199.8,-330.9 199.8,-337.1 199.8,-337.1 199.8,-340.2 196.7,-343.3 193.6,-343.3"/>
<text text-anchor="start" x="153.52" y="-331.3" font-family="Helvetica,sans-Serif" font-size="9.00" fill="#c40b0a">iterable.js</text>
</a>
</g>
</g>
<!-- ../../node_modules/@thi.ng/rstream/metastream.js -->
<g id="node11" class="node">
<title>../../node_modules/@thi.ng/rstream/metastream.js</title>
<g id="a_node11"><a xlink:href="../../node_modules/@thi.ng/rstream/metastream.js" xlink:title="metastream.js">
<path fill="#c40b0a" fill-opacity="0.101961" stroke="black" d="M202.59,-312.3C202.59,-312.3 142.96,-312.3 142.96,-312.3 139.86,-312.3 136.76,-309.2 136.76,-306.1 136.76,-306.1 136.76,-299.9 136.76,-299.9 136.76,-296.8 139.86,-293.7 142.96,-293.7 142.96,-293.7 202.59,-293.7 202.59,-293.7 205.69,-293.7 208.79,-296.8 208.79,-299.9 208.79,-299.9 208.79,-306.1 208.79,-306.1 208.79,-309.2 205.69,-312.3 202.59,-312.3"/>
<text text-anchor="start" x="144.52" y="-300.3" font-family="Helvetica,sans-Serif" font-size="9.00" fill="#c40b0a">metastream.js</text>
</a>
</g>
</g>
<!-- ../../node_modules/@thi.ng/rstream/stream.js -->
<g id="node12" class="node">
<title>../../node_modules/@thi.ng/rstream/stream.js</title>
<g id="a_node12"><a xlink:href="../../node_modules/@thi.ng/rstream/stream.js" xlink:title="stream.js">
<path fill="#c40b0a" fill-opacity="0.101961" stroke="black" d="M193.58,-281.3C193.58,-281.3 151.98,-281.3 151.98,-281.3 148.88,-281.3 145.78,-278.2 145.78,-275.1 145.78,-275.1 145.78,-268.9 145.78,-268.9 145.78,-265.8 148.88,-262.7 151.98,-262.7 151.98,-262.7 193.58,-262.7 193.58,-262.7 196.68,-262.7 199.78,-265.8 199.78,-268.9 199.78,-268.9 199.78,-275.1 199.78,-275.1 199.78,-278.2 196.68,-281.3 193.58,-281.3"/>
<text text-anchor="start" x="154.52" y="-269.3" font-family="Helvetica,sans-Serif" font-size="9.00" fill="#c40b0a">stream.js</text>
</a>
</g>
</g>
<!-- ../../node_modules/@thi.ng/rstream/sync.js -->
<g id="node13" class="node">
<title>../../node_modules/@thi.ng/rstream/sync.js</title>
<g id="a_node13"><a xlink:href="../../node_modules/@thi.ng/rstream/sync.js" xlink:title="sync.js">
<path fill="#c40b0a" fill-opacity="0.101961" stroke="black" d="M193.58,-250.3C193.58,-250.3 151.98,-250.3 151.98,-250.3 148.88,-250.3 145.78,-247.2 145.78,-244.1 145.78,-244.1 145.78,-237.9 145.78,-237.9 145.78,-234.8 148.88,-231.7 151.98,-231.7 151.98,-231.7 193.58,-231.7 193.58,-231.7 196.68,-231.7 199.78,-234.8 199.78,-237.9 199.78,-237.9 199.78,-244.1 199.78,-244.1 199.78,-247.2 196.68,-250.3 193.58,-250.3"/>
<text text-anchor="start" x="159.02" y="-238.3" font-family="Helvetica,sans-Serif" font-size="9.00" fill="#c40b0a">sync.js</text>
</a>
</g>
</g>
<!-- ../../node_modules/@thi.ng/transducers/choices.js -->
<g id="node14" class="node">
<title>../../node_modules/@thi.ng/transducers/choices.js</title>
<g id="a_node14"><a xlink:href="../../node_modules/@thi.ng/transducers/choices.js" xlink:title="choices.js">
<path fill="#c40b0a" fill-opacity="0.101961" stroke="black" d="M194.09,-189.3C194.09,-189.3 151.46,-189.3 151.46,-189.3 148.36,-189.3 145.26,-186.2 145.26,-183.1 145.26,-183.1 145.26,-176.9 145.26,-176.9 145.26,-173.8 148.36,-170.7 151.46,-170.7 151.46,-170.7 194.09,-170.7 194.09,-170.7 197.19,-170.7 200.29,-173.8 200.29,-176.9 200.29,-176.9 200.29,-183.1 200.29,-183.1 200.29,-186.2 197.19,-189.3 194.09,-189.3"/>
<text text-anchor="start" x="153.02" y="-177.3" font-family="Helvetica,sans-Serif" font-size="9.00" fill="#c40b0a">choices.js</text>
</a>
</g>
</g>
<!-- ../../node_modules/@thi.ng/transducers/map.js -->
<g id="node15" class="node">
<title>../../node_modules/@thi.ng/transducers/map.js</title>
<g id="a_node15"><a xlink:href="../../node_modules/@thi.ng/transducers/map.js" xlink:title="map.js">
<path fill="#c40b0a" fill-opacity="0.101961" stroke="black" d="M193.58,-158.3C193.58,-158.3 151.98,-158.3 151.98,-158.3 148.88,-158.3 145.78,-155.2 145.78,-152.1 145.78,-152.1 145.78,-145.9 145.78,-145.9 145.78,-142.8 148.88,-139.7 151.98,-139.7 151.98,-139.7 193.58,-139.7 193.58,-139.7 196.68,-139.7 199.78,-142.8 199.78,-145.9 199.78,-145.9 199.78,-152.1 199.78,-152.1 199.78,-155.2 196.68,-158.3 193.58,-158.3"/>
<text text-anchor="start" x="159.52" y="-146.3" font-family="Helvetica,sans-Serif" font-size="9.00" fill="#c40b0a">map.js</text>
</a>
</g>
</g>
<!-- ../../node_modules/@thi.ng/transducers/take.js -->
<g id="node16" class="node">
<title>../../node_modules/@thi.ng/transducers/take.js</title>
<g id="a_node16"><a xlink:href="../../node_modules/@thi.ng/transducers/take.js" xlink:title="take.js">
<path fill="#c40b0a" fill-opacity="0.101961" stroke="black" d="M193.58,-127.3C193.58,-127.3 151.98,-127.3 151.98,-127.3 148.88,-127.3 145.78,-124.2 145.78,-121.1 145.78,-121.1 145.78,-114.9 145.78,-114.9 145.78,-111.8 148.88,-108.7 151.98,-108.7 151.98,-108.7 193.58,-108.7 193.58,-108.7 196.68,-108.7 199.78,-111.8 199.78,-114.9 199.78,-114.9 199.78,-121.1 199.78,-121.1 199.78,-124.2 196.68,-127.3 193.58,-127.3"/>
<text text-anchor="start" x="159.77" y="-115.3" font-family="Helvetica,sans-Serif" font-size="9.00" fill="#c40b0a">take.js</text>
</a>
</g>
</g>
<!-- ../../node_modules/twind/twind.cjs -->
<g id="node17" class="node">
<title>../../node_modules/twind/twind.cjs</title>
<g id="a_node17"><a xlink:href="../../node_modules/twind/twind.cjs" xlink:title="twind.cjs">
<path fill="#c40b0a" fill-opacity="0.101961" stroke="black" d="M193.58,-58.3C193.58,-58.3 151.98,-58.3 151.98,-58.3 148.88,-58.3 145.78,-55.2 145.78,-52.1 145.78,-52.1 145.78,-45.9 145.78,-45.9 145.78,-42.8 148.88,-39.7 151.98,-39.7 151.98,-39.7 193.58,-39.7 193.58,-39.7 196.68,-39.7 199.78,-42.8 199.78,-45.9 199.78,-45.9 199.78,-52.1 199.78,-52.1 199.78,-55.2 196.68,-58.3 193.58,-58.3"/>
<text text-anchor="start" x="155.52" y="-46.3" font-family="Helvetica,sans-Serif" font-size="9.00" fill="#c40b0a">twind.cjs</text>
</a>
</g>
</g>
<!-- src/index.ts -->
<g id="node18" class="node">
<title>src/index.ts</title>
<g id="a_node18"><a xlink:href="src/index.ts" xlink:title="index.ts">
<path fill="#ddfeff" stroke="black" d="M69.06,-374.3C69.06,-374.3 27.46,-374.3 27.46,-374.3 24.36,-374.3 21.26,-371.2 21.26,-368.1 21.26,-368.1 21.26,-361.9 21.26,-361.9 21.26,-358.8 24.36,-355.7 27.46,-355.7 27.46,-355.7 69.06,-355.7 69.06,-355.7 72.16,-355.7 75.26,-358.8 75.26,-361.9 75.26,-361.9 75.26,-368.1 75.26,-368.1 75.26,-371.2 72.16,-374.3 69.06,-374.3"/>
<text text-anchor="start" x="32.75" y="-362.3" font-family="Helvetica,sans-Serif" font-size="9.00">index.ts</text>
</a>
</g>
</g>
<!-- src/index.ts&#45;&gt;../../node_modules/@thi.ng/checks/is&#45;string.js -->
<g id="edge1" class="edge">
<title>src/index.ts&#45;&gt;../../node_modules/@thi.ng/checks/is&#45;string.js</title>
<path fill="none" stroke="#000000" stroke-opacity="0.200000" d="M49.21,-374.3C49.16,-424.07 51.31,-658.52 96.52,-711 106.86,-723 123.35,-728.64 138.26,-731.22"/>
<polygon fill="#000000" fill-opacity="0.200000" stroke="#000000" stroke-opacity="0.200000" points="138.29,-733.34 144.54,-732.14 138.91,-729.19 138.29,-733.34"/>
</g>
<!-- src/index.ts&#45;&gt;../../node_modules/@thi.ng/compose/delayed.js -->
<g id="edge2" class="edge">
<title>src/index.ts&#45;&gt;../../node_modules/@thi.ng/compose/delayed.js</title>
<path fill="none" stroke="#000000" stroke-opacity="0.200000" d="M49.52,-374.37C50.91,-418.78 59,-607.69 96.52,-650 107.03,-661.85 123.54,-667.48 138.41,-670.08"/>
<polygon fill="#000000" fill-opacity="0.200000" stroke="#000000" stroke-opacity="0.200000" points="138.42,-672.21 144.67,-671.03 139.05,-668.06 138.42,-672.21"/>
</g>
<!-- src/index.ts&#45;&gt;../../node_modules/@thi.ng/hiccup&#45;html/index.js -->
<g id="edge3" class="edge">
<title>src/index.ts&#45;&gt;../../node_modules/@thi.ng/hiccup&#45;html/index.js</title>
<path fill="none" stroke="#000000" stroke-opacity="0.200000" d="M49.97,-374.35C53.08,-412.6 66.61,-556.71 96.52,-589 107.45,-600.8 124.31,-606.39 139.31,-608.99"/>
<polygon fill="#000000" fill-opacity="0.200000" stroke="#000000" stroke-opacity="0.200000" points="139.36,-611.12 145.6,-609.94 139.98,-606.97 139.36,-611.12"/>
</g>
<!-- src/index.ts&#45;&gt;../../node_modules/@thi.ng/rdom/compile.js -->
<g id="edge4" class="edge">
<title>src/index.ts&#45;&gt;../../node_modules/@thi.ng/rdom/compile.js</title>
<path fill="none" stroke="#000000" stroke-opacity="0.200000" d="M48.8,-374.34C47.92,-402.91 49.43,-489.8 96.52,-534 107.68,-544.48 123.94,-548.78 138.49,-550.34"/>
<polygon fill="#000000" fill-opacity="0.200000" stroke="#000000" stroke-opacity="0.200000" points="138.44,-552.44 144.6,-550.85 138.79,-548.26 138.44,-552.44"/>
</g>
<!-- src/index.ts&#45;&gt;../../node_modules/@thi.ng/rdom/list.js -->
<g id="edge5" class="edge">
<title>src/index.ts&#45;&gt;../../node_modules/@thi.ng/rdom/list.js</title>
<path fill="none" stroke="#000000" stroke-opacity="0.200000" d="M49.48,-374.41C50.6,-399.46 57.29,-468.23 96.52,-503 108.15,-513.31 124.76,-517.55 139.42,-519.11"/>
<polygon fill="#000000" fill-opacity="0.200000" stroke="#000000" stroke-opacity="0.200000" points="139.41,-521.22 145.56,-519.63 139.76,-517.04 139.41,-521.22"/>
</g>
<!-- src/index.ts&#45;&gt;../../node_modules/@thi.ng/rdom/replace.js -->
<g id="edge6" class="edge">
<title>src/index.ts&#45;&gt;../../node_modules/@thi.ng/rdom/replace.js</title>
<path fill="none" stroke="#000000" stroke-opacity="0.200000" d="M50.96,-374.36C55.06,-394.28 67.42,-441.05 96.52,-466 108.46,-476.23 124.94,-481.71 139.44,-484.64"/>
<polygon fill="#000000" fill-opacity="0.200000" stroke="#000000" stroke-opacity="0.200000" points="139.23,-486.74 145.51,-485.75 139.99,-482.61 139.23,-486.74"/>
</g>
<!-- src/index.ts&#45;&gt;../../node_modules/@thi.ng/rstream/api.js -->
<g id="edge7" class="edge">
<title>src/index.ts&#45;&gt;../../node_modules/@thi.ng/rstream/api.js</title>
<path fill="none" stroke="#000000" stroke-opacity="0.200000" d="M56.16,-374.36C64.5,-384.96 79.55,-401.94 96.52,-411 109.6,-417.99 125.48,-421.92 139.28,-424.14"/>
<polygon fill="#000000" fill-opacity="0.200000" stroke="#000000" stroke-opacity="0.200000" points="139.22,-426.25 145.46,-425.04 139.83,-422.1 139.22,-426.25"/>
</g>
<!-- src/index.ts&#45;&gt;../../node_modules/@thi.ng/rstream/event.js -->
<g id="edge8" class="edge">
<title>src/index.ts&#45;&gt;../../node_modules/@thi.ng/rstream/event.js</title>
<path fill="none" stroke="#000000" stroke-opacity="0.200000" d="M75.62,-373.87C82.39,-376.01 89.7,-378.2 96.52,-380 110.52,-383.7 126.16,-387.14 139.53,-389.87"/>
<polygon fill="#000000" fill-opacity="0.200000" stroke="#000000" stroke-opacity="0.200000" points="139.21,-391.94 145.51,-391.07 140.04,-387.83 139.21,-391.94"/>
</g>
<!-- src/index.ts&#45;&gt;../../node_modules/@thi.ng/rstream/interval.js -->
<g id="edge9" class="edge">
<title>src/index.ts&#45;&gt;../../node_modules/@thi.ng/rstream/interval.js</title>
<path fill="none" stroke="#000000" stroke-opacity="0.200000" d="M75.54,-365C94.28,-365 119.57,-365 139.53,-365"/>
<polygon fill="#000000" fill-opacity="0.200000" stroke="#000000" stroke-opacity="0.200000" points="139.54,-367.1 145.54,-365 139.54,-362.9 139.54,-367.1"/>
</g>
<!-- src/index.ts&#45;&gt;../../node_modules/@thi.ng/rstream/iterable.js -->
<g id="edge10" class="edge">
<title>src/index.ts&#45;&gt;../../node_modules/@thi.ng/rstream/iterable.js</title>
<path fill="none" stroke="#000000" stroke-opacity="0.200000" d="M75.62,-356.13C82.39,-353.99 89.7,-351.8 96.52,-350 110.52,-346.3 126.16,-342.86 139.53,-340.13"/>
<polygon fill="#000000" fill-opacity="0.200000" stroke="#000000" stroke-opacity="0.200000" points="140.04,-342.17 145.51,-338.93 139.21,-338.06 140.04,-342.17"/>
</g>
<!-- src/index.ts&#45;&gt;../../node_modules/@thi.ng/rstream/metastream.js -->
<g id="edge11" class="edge">
<title>src/index.ts&#45;&gt;../../node_modules/@thi.ng/rstream/metastream.js</title>
<path fill="none" stroke="#000000" stroke-opacity="0.200000" d="M75.52,-358.25C80.38,-355.98 85.02,-352.98 88.52,-349 97.64,-338.65 86.52,-328.51 96.52,-319 105.67,-310.3 118.33,-305.85 130.65,-303.69"/>
<polygon fill="#000000" fill-opacity="0.200000" stroke="#000000" stroke-opacity="0.200000" points="131.03,-305.75 136.66,-302.8 130.42,-301.6 131.03,-305.75"/>
</g>
<!-- src/index.ts&#45;&gt;../../node_modules/@thi.ng/rstream/stream.js -->
<g id="edge12" class="edge">
<title>src/index.ts&#45;&gt;../../node_modules/@thi.ng/rstream/stream.js</title>
<path fill="none" stroke="#000000" stroke-opacity="0.200000" d="M75.53,-358.78C80.51,-356.47 85.19,-353.31 88.52,-349 105.22,-327.35 77.96,-308.08 96.52,-288 107.23,-276.41 124.08,-272.11 139.12,-270.84"/>
<polygon fill="#000000" fill-opacity="0.200000" stroke="#000000" stroke-opacity="0.200000" points="139.57,-272.92 145.43,-270.47 139.32,-268.72 139.57,-272.92"/>
</g>
<!-- src/index.ts&#45;&gt;../../node_modules/@thi.ng/rstream/sync.js -->
<g id="edge13" class="edge">
<title>src/index.ts&#45;&gt;../../node_modules/@thi.ng/rstream/sync.js</title>
<path fill="none" stroke="#000000" stroke-opacity="0.200000" d="M75.27,-359.07C80.39,-356.74 85.2,-353.5 88.52,-349 100.7,-332.48 82.93,-272.37 96.52,-257 107.05,-245.09 124.05,-240.8 139.23,-239.61"/>
<polygon fill="#000000" fill-opacity="0.200000" stroke="#000000" stroke-opacity="0.200000" points="139.72,-241.69 145.6,-239.28 139.5,-237.49 139.72,-241.69"/>
</g>
<!-- src/index.ts&#45;&gt;../../node_modules/@thi.ng/transducers/choices.js -->
<g id="edge14" class="edge">
<title>src/index.ts&#45;&gt;../../node_modules/@thi.ng/transducers/choices.js</title>
<path fill="none" stroke="#000000" stroke-opacity="0.200000" d="M75.35,-359.13C80.47,-356.8 85.26,-353.54 88.52,-349 105.15,-325.86 81.21,-245.04 96.52,-221 106.27,-205.69 123.83,-195.66 139.53,-189.35"/>
<polygon fill="#000000" fill-opacity="0.200000" stroke="#000000" stroke-opacity="0.200000" points="140.35,-191.29 145.21,-187.2 138.85,-187.36 140.35,-191.29"/>
</g>
<!-- src/index.ts&#45;&gt;../../node_modules/@thi.ng/transducers/map.js -->
<g id="edge15" class="edge">
<title>src/index.ts&#45;&gt;../../node_modules/@thi.ng/transducers/map.js</title>
<path fill="none" stroke="#000000" stroke-opacity="0.200000" d="M75.42,-359.18C80.53,-356.84 85.3,-353.57 88.52,-349 100.3,-332.27 83.3,-180.62 96.52,-165 106.96,-152.67 124.33,-148.42 139.76,-147.36"/>
<polygon fill="#000000" fill-opacity="0.200000" stroke="#000000" stroke-opacity="0.200000" points="139.87,-149.46 145.77,-147.1 139.69,-145.27 139.87,-149.46"/>
</g>
<!-- src/index.ts&#45;&gt;../../node_modules/@thi.ng/transducers/take.js -->
<g id="edge16" class="edge">
<title>src/index.ts&#45;&gt;../../node_modules/@thi.ng/transducers/take.js</title>
<path fill="none" stroke="#000000" stroke-opacity="0.200000" d="M75.44,-359.19C80.55,-356.86 85.31,-353.58 88.52,-349 102.22,-329.41 81.13,-152.3 96.52,-134 106.92,-121.64 124.29,-117.38 139.72,-116.34"/>
<polygon fill="#000000" fill-opacity="0.200000" stroke="#000000" stroke-opacity="0.200000" points="139.84,-118.43 145.75,-116.08 139.66,-114.24 139.84,-118.43"/>
</g>
<!-- src/index.ts&#45;&gt;../../node_modules/twind/twind.cjs -->
<g id="edge17" class="edge">
<title>src/index.ts&#45;&gt;../../node_modules/twind/twind.cjs</title>
<path fill="none" stroke="#000000" stroke-opacity="0.200000" d="M75.46,-359.2C80.57,-356.87 85.33,-353.59 88.52,-349 104.46,-326.09 82.83,-122.31 96.52,-98 106.06,-81.06 124.16,-69 140.22,-61.08"/>
<polygon fill="#000000" fill-opacity="0.200000" stroke="#000000" stroke-opacity="0.200000" points="141.49,-62.8 146.02,-58.35 139.7,-59 141.49,-62.8"/>
</g>
<!-- src/vite&#45;env.d.ts -->
<g id="node19" class="node">
<title>src/vite&#45;env.d.ts</title>
<g id="a_node19"><a xlink:href="src/vite-env.d.ts" xlink:title="vite&#45;env.d.ts">
<path fill="#ccffcc" stroke="black" d="M74.08,-343.3C74.08,-343.3 22.44,-343.3 22.44,-343.3 19.34,-343.3 16.24,-340.2 16.24,-337.1 16.24,-337.1 16.24,-330.9 16.24,-330.9 16.24,-327.8 19.34,-324.7 22.44,-324.7 22.44,-324.7 74.08,-324.7 74.08,-324.7 77.18,-324.7 80.28,-327.8 80.28,-330.9 80.28,-330.9 80.28,-337.1 80.28,-337.1 80.28,-340.2 77.18,-343.3 74.08,-343.3"/>
<text text-anchor="start" x="24" y="-331.3" font-family="Helvetica,sans-Serif" font-size="9.00">vite&#45;env.d.ts</text>
</a>
</g>
</g>
</g>
</svg>
